<?xml version="1.0" encoding="UTF-8" standalone="no"?>
<!-- Created with Inkscape (http://www.inkscape.org/) -->

<svg
   xmlns:dc="http://purl.org/dc/elements/1.1/"
   xmlns:cc="http://creativecommons.org/ns#"
   xmlns:rdf="http://www.w3.org/1999/02/22-rdf-syntax-ns#"
   xmlns:svg="http://www.w3.org/2000/svg"
   xmlns="http://www.w3.org/2000/svg"
   xmlns:sodipodi="http://sodipodi.sourceforge.net/DTD/sodipodi-0.dtd"
   xmlns:inkscape="http://www.inkscape.org/namespaces/inkscape"
   width="580"
   height="580"
   id="svg3009"
   version="1.1"
   inkscape:version="0.48.4 r9939"
   sodipodi:docname="New document 2">
  <defs
     id="defs3011" />
  <sodipodi:namedview
     id="base"
     pagecolor="#ffffff"
     bordercolor="#666666"
     borderopacity="1.0"
     inkscape:pageopacity="0.0"
     inkscape:pageshadow="2"
     inkscape:zoom="0.35"
     inkscape:cx="375"
     inkscape:cy="520"
     inkscape:document-units="px"
     inkscape:current-layer="layer1"
     showgrid="false"
     inkscape:window-width="607"
     inkscape:window-height="438"
     inkscape:window-x="780"
     inkscape:window-y="331"
     inkscape:window-maximized="0" />
  <metadata
     id="metadata3014">
    <rdf:RDF>
      <cc:Work
         rdf:about="">
        <dc:format>image/svg+xml</dc:format>
        <dc:type
           rdf:resource="http://purl.org/dc/dcmitype/StillImage" />
        <dc:title></dc:title>
      </cc:Work>
    </rdf:RDF>
  </metadata>
  <g
     inkscape:label="Layer 1"
     inkscape:groupmode="layer"
     id="layer1"
     transform="translate(0,-472.36218)">
    <path
       inkscape:connector-curvature="0"
       style="fill:#000000;fill-opacity:1;fill-rule:evenodd;stroke:none"
       d="m 198.95917,584.00306 c -20.77687,0.25561 -41.59817,5.17326 -60.83198,14.93463 -0.21623,0.0997 -0.41765,0.21597 -0.63307,0.31653 -0.2841,0.14604 -0.57989,0.25469 -0.86327,0.40286 l 0,0.0288 c -81.293859,38.6038 -104.570499,140.66 -66.788559,215.8758 52.473279,109.81397 186.723789,147.35803 294.318569,112.68591 98.66066,-27.23883 180.91332,-124.36182 160.48246,-234.06211 -0.12703,-0.6821 -0.2103,-1.36002 -0.34531,-2.04308 l -0.0575,0 c -11.4994,-76.23032 -89.71793,-121.98495 -161.74864,-104.05318 -25.89224,6.44706 -48.9552,17.16081 -69.55104,30.84763 -26.28449,-23.31271 -60.01645,-35.35164 -93.98166,-34.93379 z m 199.3873,19.3661 c 2.5641,-0.1804 4.97991,1.45624 5.69761,4.0286 l 5.6976,20.37325 c 0.0378,0.11924 0.0855,0.25254 0.1151,0.37408 0.72046,2.9678 -1.11836,5.95551 -4.08616,6.67598 -2.9678,0.72046 -5.95552,-1.11835 -6.67598,-4.08616 l -5.6976,-20.37324 c -0.82022,-2.93984 0.88735,-5.97086 3.82718,-6.79108 0.36748,-0.10253 0.75595,-0.17566 1.12225,-0.20143 z M 238.2381,616.23193 c 3.05134,-0.12714 5.62801,2.24338 5.75515,5.29474 0.12714,3.05134 -2.24339,5.628 -5.29474,5.75515 l -21.09264,1.61144 c -3.0434,0.23044 -5.69737,-2.04992 -5.92781,-5.09331 -0.23043,-3.0434 2.04991,-5.69738 5.09331,-5.92781 l 21.09264,-1.61144 c 0.12433,-0.0138 0.2491,-0.0234 0.37409,-0.0288 z m -102.47053,10.3305 c 0.36714,0.007 0.72135,0.0598 1.09348,0.14388 l 20.66102,4.63289 c 0.12291,0.0233 0.22425,0.0548 0.3453,0.0863 2.9544,0.7736 4.74466,3.80791 3.97106,6.76231 -0.77358,2.95439 -3.80791,4.71587 -6.7623,3.94228 l -20.63224,-4.66168 c -2.9771,-0.6725 -4.84499,-3.61255 -4.17249,-6.58965 0.58846,-2.60496 2.92626,-4.36859 5.49617,-4.31636 z m 195.32993,6.10046 c 1.7751,0.0107 3.51635,0.88669 4.57535,2.47472 1.6944,2.54084 1.01574,5.95995 -1.52512,7.65435 l -17.20791,12.3448 c -2.48037,1.77852 -5.90459,1.21426 -7.68313,-1.26613 -1.7785,-2.48038 -1.21423,-5.93338 1.26614,-7.71191 l 17.17913,-12.3448 c 0.099,-0.0764 0.18378,-0.13191 0.28776,-0.20143 0.95282,-0.6354 2.04272,-0.95601 3.10778,-0.9496 z m 152.10872,12.74766 c 3.05134,-0.12713 5.62801,2.2434 5.75515,5.29475 0.12714,3.05134 -2.2434,5.62801 -5.29474,5.75515 l -21.09264,1.61144 c -3.0434,0.23044 -5.69737,-2.04991 -5.92781,-5.09331 -0.23043,-3.0434 2.04991,-5.69737 5.09331,-5.92781 l 21.09264,-1.61144 c 0.12433,-0.0138 0.2491,-0.0234 0.37409,-0.0288 z m -282.83703,6.12924 c 14.60579,0.0603 29.28863,4.31908 41.29322,12.37358 -33.37094,37.13479 -61.88741,89.80652 -80.45721,131.33295 -5.15426,10.99582 -3.98428,23.90426 3.079,33.78275 7.06329,9.87849 18.91967,15.19103 30.99151,13.86992 12.07182,-1.32111 22.49112,-9.05702 27.25065,-20.22936 17.28827,-38.66062 43.11657,-84.51748 70.21304,-114.29769 24.93521,26.53609 52.67562,69.71705 64.28541,103.56449 3.76101,11.52541 13.43599,20.1179 25.32267,22.50265 11.8867,2.38476 24.14064,-1.80953 32.05621,-10.99234 7.91558,-9.18281 10.26904,-21.91708 6.15801,-33.32234 -14.36708,-41.88613 -45.68757,-91.70858 -75.01876,-123.88019 10.49903,-5.56489 21.50958,-10.04359 33.17846,-12.94909 4.31468,-1.07413 8.71093,-1.64601 13.12175,-1.75533 30.87576,-0.76525 62.13512,21.09489 66.21304,51.56618 l 0.14388,1.03593 0.20143,1.03593 c 13.62415,68.93393 -45.36597,139.92653 -113.46285,158.72714 l -0.69062,0.20143 -0.69062,0.20143 C 265.95649,889.31451 165.26524,859.4233 130.18508,786.00896 l -0.14388,-0.28776 -0.14388,-0.31653 c -21.50334,-42.80857 -6.6419,-105.64655 36.3438,-125.46235 l 0.74817,-0.34531 0.74817,-0.40286 c 9.95544,-5.20541 21.27166,-7.70129 32.63173,-7.65436 z m -98.87355,37.06319 c 1.7027,0.0729 3.35463,0.94623 4.37391,2.47472 1.6944,2.54084 1.01574,5.98873 -1.52511,7.68313 l -17.179129,12.3448 c -2.48038,1.77852 -5.93339,1.18547 -7.71191,-1.2949 -1.77851,-2.48038 -1.21424,-5.93339 1.26613,-7.71191 l 17.17914,-12.31603 c 0.099,-0.0764 0.21253,-0.16068 0.31653,-0.23021 0.79401,-0.5295 1.67302,-0.84023 2.561039,-0.92082 0.24421,-0.0222 0.47615,-0.0392 0.7194,-0.0288 z m 254.06127,17.29424 c 2.35724,0.023 4.52338,1.56579 5.23719,3.94228 0.87855,2.92489 -0.78717,6.02765 -3.71208,6.90619 l -20.02793,6.7623 c -2.89164,0.97666 -6.04463,-0.56145 -7.02129,-3.45309 -0.97665,-2.89163 0.59024,-6.01585 3.48187,-6.99251 l 20.02793,-6.79108 c 0.11703,-0.0442 0.22556,-0.079 0.34531,-0.11511 0.54842,-0.16472 1.12502,-0.26428 1.669,-0.25898 z m -101.83745,3.25166 c 3.05135,-0.12714 5.62802,2.24339 5.75515,5.29474 0.12714,3.05135 -2.24339,5.62801 -5.29474,5.75516 l -21.09264,1.61144 c -3.04339,0.23044 -5.69737,-2.04992 -5.9278,-5.09331 -0.23044,-3.0434 2.04991,-5.69738 5.09331,-5.92781 l 21.09264,-1.61144 c 0.12433,-0.0138 0.2491,-0.0234 0.37408,-0.0288 z m 232.91107,2.18696 c 1.06415,-0.0243 2.14499,0.27318 3.10779,0.89205 l 17.8122,11.42398 c 0.10754,0.0639 0.21359,0.13036 0.31653,0.20143 2.51155,1.73753 3.14753,5.17158 1.41001,7.68313 -1.73753,2.51155 -5.20036,3.14754 -7.7119,1.41001 l -17.78343,-11.42398 c -2.56746,-1.65031 -3.31929,-5.08688 -1.66899,-7.65435 1.03144,-1.60467 2.74421,-2.4917 4.51779,-2.53227 z m -115.99512,56.86092 c 0.36713,0.007 0.72135,0.0598 1.09348,0.14388 l 20.63222,4.66167 c 0.12292,0.0233 0.25304,0.026 0.37409,0.0575 2.95439,0.7736 4.71587,3.80793 3.94228,6.76231 -0.77358,2.95439 -3.77913,4.71588 -6.73353,3.94228 l -20.63223,-4.6329 c -2.9771,-0.6725 -4.84498,-3.64133 -4.17248,-6.61842 0.58845,-2.60497 2.92627,-4.36859 5.49617,-4.31637 z m -175.81995,4.8631 c 1.06415,-0.0243 2.14499,0.24441 3.10779,0.86328 l 17.8122,11.42398 c 0.10754,0.0639 0.21357,0.13038 0.31653,0.20143 2.51155,1.73753 3.11877,5.20036 1.38124,7.7119 -1.73754,2.51155 -5.17158,3.14754 -7.68313,1.41002 l -17.8122,-11.45276 c -2.56747,-1.65031 -3.29053,-5.05811 -1.64022,-7.62558 1.03144,-1.60466 2.74421,-2.49169 4.51779,-2.53227 z m -92.83064,1.26614 c 3.05135,-0.12714 5.62802,2.24339 5.75516,5.29474 0.12714,3.05135 -2.2434,5.62802 -5.29474,5.75515 l -21.092639,1.61145 c -3.0434,0.23043 -5.69737,-2.04992 -5.92781,-5.09331 -0.23044,-3.0434 2.04992,-5.69738 5.09331,-5.92781 l 21.092639,-1.61145 c 0.12433,-0.0138 0.2491,-0.0234 0.37408,-0.0288 z m 382.97672,13.69726 c 1.7751,0.0107 3.51635,0.88669 4.57535,2.47472 1.6944,2.54084 0.98696,5.95996 -1.5539,7.65436 l -17.17913,12.3448 c -2.48038,1.77852 -5.93339,1.21425 -7.71191,-1.26613 -1.77851,-2.48038 -1.21425,-5.93339 1.26614,-7.71191 L 481.566,789.1743 c 0.099,-0.0764 0.18376,-0.13191 0.28776,-0.20144 0.95282,-0.63539 2.04272,-0.956 3.10778,-0.9496 z m -360.81938,37.12075 c 2.35488,0.0694 4.48444,1.66876 5.15087,4.05738 l 5.6976,20.37324 c 0.0378,0.11924 0.0855,0.22378 0.1151,0.34531 0.72046,2.9678 -1.11837,5.95551 -4.08616,6.67598 -2.9678,0.72046 -5.95552,-1.08959 -6.67598,-4.05738 l -5.6976,-20.37325 c -0.82022,-2.93983 0.91612,-5.99962 3.85596,-6.81985 0.55121,-0.15379 1.09678,-0.21745 1.64021,-0.20143 z m 305.71378,12.60378 c 3.04913,-0.13494 5.62021,2.24562 5.75515,5.29474 l 0.94961,21.12142 c 0.01,0.12471 0.0273,0.24899 0.0288,0.37408 0.0315,3.05384 -2.44234,5.55107 -5.49617,5.5825 -3.05383,0.0315 -5.55104,-2.41356 -5.5825,-5.46739 l -0.9496,-21.12142 c -0.13495,-3.04912 2.24561,-5.64898 5.29474,-5.78393 z M 179.219,879.81797 c 0.36713,0.007 0.75012,0.0598 1.12225,0.14388 l 20.63223,4.66167 c 0.12291,0.0233 0.25303,0.0548 0.37408,0.0863 2.95439,0.77359 4.71588,3.77914 3.94228,6.73353 -0.77358,2.95439 -3.80791,4.71588 -6.7623,3.94228 l -20.63223,-4.6329 c -2.9771,-0.67251 -4.84499,-3.64134 -4.17249,-6.61843 0.58846,-2.60496 2.92626,-4.36858 5.49618,-4.31636 z m 192.9703,9.43845 c 3.05135,-0.12714 5.62801,2.24339 5.75515,5.29474 0.12714,3.05135 -2.2434,5.62802 -5.29474,5.75515 l -21.09264,1.61145 c -3.04339,0.23043 -5.69738,-2.04991 -5.9278,-5.09331 -0.23044,-3.0434 2.0499,-5.69738 5.09331,-5.92781 l 21.09264,-1.61145 c 0.12433,-0.0138 0.24909,-0.0234 0.37408,-0.0288 z m -111.07447,5.35229 c 1.06415,-0.0243 2.14498,0.24441 3.10779,0.86328 l 17.8122,11.42398 c 0.10754,0.0639 0.21358,0.13037 0.31653,0.20143 2.51155,1.73753 3.11877,5.20035 1.38124,7.7119 -1.73753,2.51155 -5.17157,3.14754 -7.68313,1.41001 l -17.8122,-11.45275 c -2.56747,-1.65031 -3.29053,-5.05811 -1.64022,-7.62558 1.03144,-1.60467 2.74421,-2.4917 4.51779,-2.53227 z"
       id="path7165"
       sodipodi:nodetypes="ccsccccsccccccccssccsccsccsccccccssccsccsccsccsccsccsccccccsscccssccssccccccccccccccsccsccssccsccsccsccsccsccccccssccsccccssccsccccssccsccsccsccccsccsccsccccssccsccccssccccccssccsccsccsccccccssccsc" />
    <path
       inkscape:connector-curvature="0"
       style="opacity:0.1;fill:#000000;fill-opacity:1;fill-rule:evenodd;stroke:none"
       d="m 198.95917,584.00306 c -20.77687,0.25561 -41.59817,5.17326 -60.83198,14.93463 -0.21623,0.0997 -0.41765,0.21597 -0.63307,0.31653 -0.2841,0.14603 -0.57989,0.25469 -0.86327,0.40286 l 0,0.0288 c -81.293864,38.6038 -104.570504,140.66 -66.788564,215.87579 52.473284,109.81398 186.723794,147.35804 294.318534,112.68591 98.6607,-27.23883 180.9134,-124.36181 160.4825,-234.0621 -0.1271,-0.6821 -0.2103,-1.36002 -0.3453,-2.04308 l -0.0576,0 c -11.4993,-76.23032 -89.7178,-121.98495 -161.7486,-104.05318 -25.8922,6.44706 -48.95515,17.16081 -69.55099,30.84763 -26.28449,-23.31271 -60.01645,-35.35164 -93.98166,-34.93379 z m 192.88395,67.53673 c 30.8758,-0.76525 62.1351,21.09489 66.2131,51.56618 l 0.1439,1.03593 0.2014,1.03592 c 13.6241,68.93394 -45.366,139.92654 -113.4629,158.72715 l -0.6906,0.20143 -0.6906,0.20143 c -77.60093,25.00668 -178.29218,-4.88454 -213.37235,-78.29887 l -0.14387,-0.28776 -0.14388,-0.31653 c -21.50334,-42.80857 -6.6419,-105.64655 36.3438,-125.46235 l 0.74817,-0.34531 0.74817,-0.40286 c 22.75529,-11.89809 52.58344,-9.5999 73.92495,4.71922 -33.37094,37.13479 -57.88742,81.80652 -76.45722,123.33295 -5.15425,10.99582 -3.97252,23.91741 3.09076,33.7959 7.06329,9.87849 18.90828,15.17566 30.98011,13.85455 12.07184,-1.32112 22.49077,-9.0548 27.2503,-20.22715 17.28827,-38.66061 39.11657,-76.51747 66.21304,-106.29768 24.9352,26.53609 44.67562,57.71705 56.28542,91.56449 3.761,11.52541 13.4405,20.13007 25.3272,22.51483 11.8867,2.38475 24.1361,-1.82045 32.0517,-11.00326 7.9155,-9.18281 10.269,-21.91834 6.158,-33.3236 -14.3671,-41.88613 -37.6876,-79.70859 -67.0188,-111.88019 10.4991,-5.56489 21.5096,-10.04359 33.1785,-12.9491 4.3147,-1.07412 8.7109,-1.646 13.1217,-1.75532 z"
       id="path7219" />
  </g>
</svg>
