<?xml version="1.0" encoding="UTF-8" standalone="no"?>
<!-- Created with Inkscape (http://www.inkscape.org/) -->

<svg
   xmlns:dc="http://purl.org/dc/elements/1.1/"
   xmlns:cc="http://creativecommons.org/ns#"
   xmlns:rdf="http://www.w3.org/1999/02/22-rdf-syntax-ns#"
   xmlns:svg="http://www.w3.org/2000/svg"
   xmlns="http://www.w3.org/2000/svg"
   xmlns:sodipodi="http://sodipodi.sourceforge.net/DTD/sodipodi-0.dtd"
   xmlns:inkscape="http://www.inkscape.org/namespaces/inkscape"
   width="580"
   height="580"
   id="svg2999"
   version="1.1"
   inkscape:version="0.48.4 r9939"
   sodipodi:docname="New document 1">
  <defs
     id="defs3001" />
  <sodipodi:namedview
     id="base"
     pagecolor="#ffffff"
     bordercolor="#666666"
     borderopacity="1.0"
     inkscape:pageopacity="0.0"
     inkscape:pageshadow="2"
     inkscape:zoom="0.35"
     inkscape:cx="35"
     inkscape:cy="520"
     inkscape:document-units="px"
     inkscape:current-layer="layer1"
     showgrid="false"
     inkscape:window-width="1920"
     inkscape:window-height="1124"
     inkscape:window-x="0"
     inkscape:window-y="24"
     inkscape:window-maximized="1" />
  <metadata
     id="metadata3004">
    <rdf:RDF>
      <cc:Work
         rdf:about="">
        <dc:format>image/svg+xml</dc:format>
        <dc:type
           rdf:resource="http://purl.org/dc/dcmitype/StillImage" />
        <dc:title></dc:title>
      </cc:Work>
    </rdf:RDF>
  </metadata>
  <g
     inkscape:label="Layer 1"
     inkscape:groupmode="layer"
     id="layer1"
     transform="translate(0,-472.36218)">
    <g
       transform="translate(3.055761,473.47638)"
       id="g3007">
      <g
         style="stroke:#000000;stroke-width:3.4340868;stroke-linecap:round;stroke-linejoin:round;stroke-miterlimit:4;stroke-opacity:1;stroke-dasharray:none"
         transform="matrix(1.4559912,0,0,1.4559912,-376.41212,64.28652)"
         id="g5004">
        <path
           inkscape:connector-curvature="0"
           sodipodi:nodetypes="ccccsccccsccsccssscccccccsccccssscccssscc"
           transform="scale(1.0867055,0.9202125)"
           style="font-size:323.14517212px;font-style:normal;font-variant:normal;font-weight:normal;font-stretch:normal;text-align:start;line-height:125%;writing-mode:lr-tb;text-anchor:start;fill:#000000;fill-opacity:1;stroke:#000000;stroke-width:3.4340868;stroke-linecap:round;stroke-linejoin:round;stroke-miterlimit:4;stroke-opacity:1;stroke-dasharray:none;font-family:Arial Unicode MS;-inkscape-font-specification:Arial Unicode MS"
           d="m 424.47661,167.17928 c 0.21028,0.10532 0.99921,0.3157 2.36679,0.63114 21.56392,4.20775 41.55535,11.88665 52.39011,23.03672 10.83446,11.15029 16.25177,25.77175 16.25193,43.86443 -1.6e-4,18.51357 -5.94342,34.55511 -17.82979,48.12465 -11.88666,13.56957 -32.14106,20.9329 -53.17904,22.09 l -8.84825,13.78964 -4.24271,0 0,-13.47407 c -21.45892,-2.41938 -37.92122,-9.38825 -49.38694,-20.90661 -11.46578,-11.51833 -17.93499,-27.63875 -19.40764,-48.36132 l 28.40143,-5.04915 c 2.20896,15.56825 6.67955,27.55995 13.41179,35.97515 6.73213,8.41526 15.72591,13.20143 26.98136,14.3585 l 0,-90.41122 c -21.35373,-4.62827 -37.34267,-12.35976 -47.96686,-23.1945 -10.62427,-10.83448 -15.93638,-24.77221 -15.93636,-41.81322 -2e-5,-16.93548 5.2595,-31.478049 15.77857,-43.627756 10.51901,-12.149271 26.56054,-19.170729 48.12465,-21.064395 l 0,-13.569573 13.09096,0 0,13.569573 c 17.88227,1.788476 35.76989,7.468756 46.07869,17.040859 10.30851,9.572546 16.77772,22.984322 19.40764,40.235362 l -29.50593,4.26021 C 458.77383,111.95446 455.24996,103.46034 449.88537,97.201308 444.52054,90.942683 433.52289,86.919151 424.47661,85.1307 l 0,82.04858 z m -13.09096,-3.47129 0,-78.892862 c -11.46584,1.998833 -20.24923,6.600912 -26.35022,13.806251 -6.1011,7.205741 -9.15162,15.542081 -9.15157,25.009041 -5e-5,10.83478 3.15566,19.3815 9.46714,25.64018 6.31137,6.25898 14.98958,11.07144 26.03465,14.43739 l 0,0 z m 13.09096,117.55037 c 11.04489,-1.68303 23.93597,-6.49549 31.08904,-14.43739 7.15282,-7.94184 10.72929,-17.96123 10.72943,-30.05819 -1.4e-4,-10.62416 -2.70879,-19.17088 -8.12596,-25.64018 -5.41744,-6.46912 -19.17634,-11.96531 -33.69251,-16.4886 l 0,86.62436 z"
           id="text2413" />
      </g>
      <path
         inkscape:connector-curvature="0"
         sodipodi:nodetypes="cc"
         id="path4370"
         d="m 287.42618,131.3132 0,362.30743"
         style="fill:none;stroke:#000000;stroke-width:46.16495132;stroke-linecap:round;stroke-linejoin:round;stroke-miterlimit:4;stroke-opacity:1;stroke-dasharray:none" />
      <path
         inkscape:connector-curvature="0"
         style="font-size:12px;fill:none;stroke:#000000;stroke-width:20;stroke-linejoin:round;stroke-miterlimit:4;stroke-opacity:1;stroke-dasharray:none"
         d="M 286.94406,34.001595 34.884618,225.90902 l 50.411556,0 0,317.86099 151.236006,0 104.28079,0 147.77899,0 0,-317.86099 50.4119,0 -252.0598,-191.907425 0,0 0,0 z"
         id="path3198"
         sodipodi:nodetypes="cccccccccccc" />
    </g>
  </g>
</svg>
