<?xml version="1.0" encoding="UTF-8" standalone="no"?>
<!-- Created with Inkscape (http://www.inkscape.org/) -->

<svg
   xmlns:dc="http://purl.org/dc/elements/1.1/"
   xmlns:cc="http://creativecommons.org/ns#"
   xmlns:rdf="http://www.w3.org/1999/02/22-rdf-syntax-ns#"
   xmlns:svg="http://www.w3.org/2000/svg"
   xmlns="http://www.w3.org/2000/svg"
   xmlns:sodipodi="http://sodipodi.sourceforge.net/DTD/sodipodi-0.dtd"
   xmlns:inkscape="http://www.inkscape.org/namespaces/inkscape"
   width="580"
   height="580"
   id="svg2999"
   version="1.1"
   inkscape:version="0.48.4 r9939"
   sodipodi:docname="bank.svg">
  <defs
     id="defs3001" />
  <sodipodi:namedview
     id="base"
     pagecolor="#ffffff"
     bordercolor="#666666"
     borderopacity="1.0"
     inkscape:pageopacity="0.0"
     inkscape:pageshadow="2"
     inkscape:zoom="0.35"
     inkscape:cx="-467.85714"
     inkscape:cy="634.28571"
     inkscape:document-units="px"
     inkscape:current-layer="layer1"
     showgrid="false"
     inkscape:window-width="1920"
     inkscape:window-height="1124"
     inkscape:window-x="0"
     inkscape:window-y="24"
     inkscape:window-maximized="1" />
  <metadata
     id="metadata3004">
    <rdf:RDF>
      <cc:Work
         rdf:about="">
        <dc:format>image/svg+xml</dc:format>
        <dc:type
           rdf:resource="http://purl.org/dc/dcmitype/StillImage" />
        <dc:title />
      </cc:Work>
    </rdf:RDF>
  </metadata>
  <g
     inkscape:label="Layer 1"
     inkscape:groupmode="layer"
     id="layer1"
     transform="translate(0,-472.36218)">
    <g
       id="g5004"
       transform="matrix(1.4559912,0,0,1.4559912,-373.35636,537.7629)"
       style="stroke:#000000;stroke-width:3.4340868;stroke-linecap:round;stroke-linejoin:round;stroke-miterlimit:4;stroke-opacity:1;stroke-dasharray:none" />
    <path
       id="path4370"
       style="fill:#000000;stroke:none;stroke-width:46.16495132000000012;stroke-linecap:round;stroke-linejoin:round;stroke-miterlimit:4;stroke-opacity:1;stroke-dasharray:none;fill-opacity:1"
       d="m 290.48194,604.78958 0,362.30743 m 7.78287,-205.34375 c 0.33272,0.14111 1.58099,0.42298 3.74482,0.84562 34.11916,5.63763 65.75027,15.92598 82.89339,30.86508 17.14265,14.9394 25.7141,34.52954 25.71435,58.7705 -2.5e-4,24.80488 -9.40388,46.29767 -28.21089,64.47843 -18.80747,18.1808 -50.85467,28.04635 -84.14167,29.59666 l -13.99999,18.47565 -6.71296,0 0,-18.05285 c -33.95303,-3.24153 -60.00023,-12.57857 -78.14168,-28.01112 -18.14154,-15.4325 -28.37735,-37.03098 -30.70742,-64.79553 l 44.9377,-6.76495 c 3.49509,20.85867 10.5686,36.9254 21.22058,48.20027 10.6518,11.27494 24.88206,17.68756 42.69082,19.23782 l 0,-121.13488 C 243.76527,787.26291 218.46703,776.90409 201.65708,762.38748 184.847,747.87121 176.442,729.19714 176.44203,706.36524 c -3e-5,-22.69052 8.32176,-42.17497 24.96539,-58.4534 16.64353,-16.27785 42.02498,-25.68535 76.14444,-28.22253 l 0,-18.1808 20.71295,0 0,18.1808 c 28.29393,2.39624 56.59633,10.0068 72.90726,22.83171 16.31047,12.8255 26.54627,30.79488 30.70742,53.90819 l -46.68528,5.70792 c -2.66318,-14.37526 -8.23877,-25.75586 -16.7268,-34.14185 -8.48842,-8.38544 -25.88927,-13.77625 -40.2026,-16.17245 l 0,109.93043 z m -20.71295,-4.65091 0,-105.70233 c -18.14164,2.67807 -32.03902,8.84404 -41.69221,18.4979 -9.65336,9.65441 -14.48,20.82362 -14.47992,33.50765 -8e-5,14.51667 4.99299,25.96775 14.97923,34.35326 9.98606,8.38591 23.71702,14.83375 41.1929,19.34352 l 0,0 z m 20.71295,157.49649 c 17.4756,-2.25496 37.8723,-8.70279 49.19013,-19.34352 11.31743,-10.64065 16.97624,-24.06484 16.97646,-40.2726 -2.2e-4,-14.23448 -4.28593,-25.68556 -12.85716,-34.35326 -8.57166,-8.66747 -30.34145,-16.03138 -53.30943,-22.09178 l 0,116.06116 z" />
    <path
       sodipodi:nodetypes="cccccccccccc"
       id="path3198"
       d="M 289.99982,507.47798 37.940379,699.3854 l 50.411556,0 0,317.861 151.236005,0 104.28079,0 147.77899,0 0,-317.861 50.4119,0 -252.0598,-191.90743 0,0 0,0 z"
       style="font-size:12px;fill:none;stroke:#000000;stroke-width:20;stroke-linejoin:round;stroke-miterlimit:4;stroke-opacity:1;stroke-dasharray:none"
       inkscape:connector-curvature="0" />
  </g>
</svg>
