<?xml version="1.0" encoding="UTF-8" standalone="no"?>
<!-- Created with Inkscape (http://www.inkscape.org/) -->

<svg
   xmlns:dc="http://purl.org/dc/elements/1.1/"
   xmlns:cc="http://creativecommons.org/ns#"
   xmlns:rdf="http://www.w3.org/1999/02/22-rdf-syntax-ns#"
   xmlns:svg="http://www.w3.org/2000/svg"
   xmlns="http://www.w3.org/2000/svg"
   xmlns:sodipodi="http://sodipodi.sourceforge.net/DTD/sodipodi-0.dtd"
   xmlns:inkscape="http://www.inkscape.org/namespaces/inkscape"
   version="1.0"
   width="580"
   height="580"
   id="svg2"
   sodipodi:version="0.32"
   inkscape:version="0.48.4 r9939"
   sodipodi:docname="cinema2.svg"
   inkscape:output_extension="org.inkscape.output.svg.inkscape">
  <metadata
     id="metadata10">
    <rdf:RDF>
      <cc:Work
         rdf:about="">
        <dc:format>image/svg+xml</dc:format>
        <dc:type
           rdf:resource="http://purl.org/dc/dcmitype/StillImage" />
        <cc:license
           rdf:resource="http://web.resource.org/cc/PublicDomain" />
        <dc:language>en</dc:language>
        <dc:title />
      </cc:Work>
    </rdf:RDF>
  </metadata>
  <sodipodi:namedview
     inkscape:window-height="997"
     inkscape:window-width="1400"
     inkscape:pageshadow="2"
     inkscape:pageopacity="0.0"
     guidetolerance="10.0"
     gridtolerance="10.0"
     objecttolerance="10.0"
     borderopacity="1.0"
     bordercolor="#666666"
     pagecolor="#ffffff"
     id="base"
     showgrid="false"
     inkscape:zoom="0.79655172"
     inkscape:cx="60.568354"
     inkscape:cy="253.54186"
     inkscape:window-x="0"
     inkscape:window-y="24"
     inkscape:current-layer="svg2"
     inkscape:window-maximized="0" />
  <defs
     id="defs4">
    <inkscape:perspective
       sodipodi:type="inkscape:persp3d"
       inkscape:vp_x="0 : 290 : 1"
       inkscape:vp_y="0 : 1000 : 0"
       inkscape:vp_z="580 : 290 : 1"
       inkscape:persp3d-origin="290 : 193.33333 : 1"
       id="perspective12" />
    <inkscape:perspective
       id="perspective2539"
       inkscape:persp3d-origin="16 : 10.666667 : 1"
       inkscape:vp_z="32 : 16 : 1"
       inkscape:vp_y="0 : 1000 : 0"
       inkscape:vp_x="0 : 16 : 1"
       sodipodi:type="inkscape:persp3d" />
    <inkscape:perspective
       id="perspective18697"
       inkscape:persp3d-origin="0.5 : 0.33333333 : 1"
       inkscape:vp_z="1 : 0.5 : 1"
       inkscape:vp_y="0 : 1000 : 0"
       inkscape:vp_x="0 : 0.5 : 1"
       sodipodi:type="inkscape:persp3d" />
  </defs>
  <path
     inkscape:connector-curvature="0"
     style="fill:#000000;fill-opacity:1;stroke:none"
     d="m 329.40345,25.419924 c -3.77179,2.707161 -7.33119,5.738548 -10.78358,8.933679 L 331.118,60.342487 311.17514,69.95296 301.79026,50.416177 c -3.38522,3.053347 -6.83541,5.917741 -10.51286,8.392244 L 330.6668,140.70048 145.13504,229.99215 95.638853,127.11948 c -0.856363,0.34676 -1.686433,0.72444 -2.526697,1.12799 -8.334375,4.07268 -15.884276,10.90092 -23.236589,18.1832 l 16.107694,-7.76057 15.521139,32.17026 -19.942859,9.61048 -14.844346,-30.8618 c -2.645639,2.66114 -5.284536,5.36342 -7.941048,7.94105 L 250.66977,556.34215 c 3.99,-4.01081 8.00274,-8.0684 12.09205,-11.82134 l -4.87292,2.34622 -15.52114,-32.17027 19.94286,-9.61047 13.94195,29.0119 c 1.20515,-0.72028 2.46081,-1.37981 3.69981,-1.98526 2.90403,-1.39468 5.90251,-2.41385 8.9788,-3.20349 l -41.32955,-85.95282 185.53176,-89.24655 50.4437,104.85792 c 12.88518,-10.38198 23.84633,-24.58871 38.39677,-32.98242 L 329.40345,25.419924 z m 21.47693,76.071626 15.47602,32.17027 -19.89774,9.56535 -15.47602,-32.17026 19.89774,-9.56536 z m -11.77622,56.80557 85.59187,177.86142 -185.53176,89.24655 -85.59186,-177.86142 185.53175,-89.24655 z m 47.05974,16.46865 15.47602,32.17027 -19.94286,9.56535 -15.47602,-32.17027 19.94286,-9.56535 z m -264.89712,37.17854 15.47602,32.17027 -19.89774,9.61047 -15.52114,-32.17027 19.94286,-9.61047 z m 300.13552,36.09567 15.47602,32.17027 -19.89774,9.61047 -15.47602,-32.21538 19.89774,-9.56536 z m -264.89712,37.22367 15.52114,32.17026 -19.94286,9.56536 -15.47602,-32.17027 19.89774,-9.56535 z m 300.18064,36.05055 15.47602,32.17027 -19.94286,9.61047 -15.47602,-32.17027 19.94286,-9.61047 z m -264.89712,37.22366 15.47602,32.17027 -19.89774,9.56535 -15.52114,-32.17027 19.94286,-9.56535 z m 300.13552,36.05055 15.47602,32.21539 -19.89774,9.56536 -15.47602,-32.17027 19.89774,-9.61048 z m -264.852,37.22367 15.47602,32.17026 -19.94286,9.61048 -15.47602,-32.21539 19.94286,-9.56535 z"
     id="rect3391" />
</svg>
