<?xml version="1.0" encoding="UTF-8" standalone="no"?>
<!-- Created with Inkscape (http://www.inkscape.org/) -->

<svg
   xmlns:dc="http://purl.org/dc/elements/1.1/"
   xmlns:cc="http://creativecommons.org/ns#"
   xmlns:rdf="http://www.w3.org/1999/02/22-rdf-syntax-ns#"
   xmlns:svg="http://www.w3.org/2000/svg"
   xmlns="http://www.w3.org/2000/svg"
   xmlns:sodipodi="http://sodipodi.sourceforge.net/DTD/sodipodi-0.dtd"
   xmlns:inkscape="http://www.inkscape.org/namespaces/inkscape"
   width="580"
   height="580"
   id="svg3115"
   version="1.1"
   inkscape:version="0.48.4 r9939"
   sodipodi:docname="New document 2">
  <defs
     id="defs3117" />
  <sodipodi:namedview
     id="base"
     pagecolor="#ffffff"
     bordercolor="#666666"
     borderopacity="1.0"
     inkscape:pageopacity="0.0"
     inkscape:pageshadow="2"
     inkscape:zoom="0.35"
     inkscape:cx="35"
     inkscape:cy="520"
     inkscape:document-units="px"
     inkscape:current-layer="layer1"
     showgrid="false"
     inkscape:window-width="1920"
     inkscape:window-height="1124"
     inkscape:window-x="0"
     inkscape:window-y="24"
     inkscape:window-maximized="1" />
  <metadata
     id="metadata3120">
    <rdf:RDF>
      <cc:Work
         rdf:about="">
        <dc:format>image/svg+xml</dc:format>
        <dc:type
           rdf:resource="http://purl.org/dc/dcmitype/StillImage" />
        <dc:title></dc:title>
      </cc:Work>
    </rdf:RDF>
  </metadata>
  <g
     inkscape:label="Layer 1"
     inkscape:groupmode="layer"
     id="layer1"
     transform="translate(0,-472.36218)">
    <g
       transform="translate(13.665959,490.67904)"
       id="g3098">
      <path
         inkscape:connector-curvature="0"
         style="fill:#000000;fill-opacity:1"
         d="m 420.24438,497.38692 c 13.49435,-15.5586 24.51453,-31.70811 24.48917,-35.88767 -0.0254,-4.17955 17.66419,-27.39553 39.31017,-51.59129 55.75946,-62.3272 62.56769,-104.08674 21.84545,-133.99266 -18.51217,-13.59518 -25.83557,-14.56303 -54.24201,-7.169 -31.5123,8.20246 -33.9442,7.45758 -60.13778,-18.41994 -32.15665,-31.76885 -65.26666,-35.46989 -88.18621,-9.85737 -12.60872,14.09011 -15.81393,34.53896 -19.67152,125.50109 -3.55841,83.90782 -2.2447,111.09836 5.76585,119.33335 14.37472,14.77774 37.80021,0.97917 59.91395,-35.2918 22.17665,-36.37412 28.46789,-30.09854 15.90022,15.86087 -7.89293,28.86401 -7.85954,38.43847 0.16736,47.99173 15.33173,18.24722 28.03908,14.42955 54.84535,-16.47731 z"
         id="path14472"
         sodipodi:nodetypes="csssssssssssc" />
      <path
         inkscape:connector-curvature="0"
         sodipodi:nodetypes="cssssccsssssssccssssssssccsssssssssssccsssssssssccssssssssccsssccsssssssccssssssccssssssssssssccsssssssssssc"
         id="path2452"
         d="m 183.06733,419.04794 c -15.38205,-24.88871 12.19876,-57.12965 31.05131,-36.29782 5.86019,6.47544 3.13293,7.18974 -9.92622,2.59984 -11.63038,-4.08776 -11.63038,-4.08776 -12.96268,11.96425 -0.73278,8.82862 -1.51271,17.39054 -1.73319,19.02649 -0.4792,3.55597 -4.78431,5.36875 -6.42922,2.70724 z m -29.76305,-29.99663 c -0.66251,-1.07197 7.82793,-7.75963 18.86764,-14.86142 11.03969,-7.10181 20.07219,-14.34423 20.07219,-16.09426 0,-2.44518 -1.12476,-2.12524 -4.8579,1.38187 -6.11622,5.7459 -8.211,5.7792 -7.35695,0.1169 0.50617,-3.35595 3.50275,-5.32398 12.21485,-8.02227 6.34927,-1.96648 13.66932,-4.72124 16.26675,-6.1217 6.86025,-3.6988 7.53155,9.76213 0.85933,17.2315 -6.27879,7.02894 -54.11421,29.52727 -56.06591,26.36938 z m 10.86484,-25.0831 c -10.88972,-12.94168 -5.01723,-24.19795 17.91207,-34.33354 12.98528,-5.73999 16.07395,-8.79749 12.49876,-12.37268 -1.71517,-1.71518 -2.33584,-1.6809 -2.33584,0.12896 0,1.35568 -2.83356,3.93013 -6.29682,5.72104 -6.33079,3.27378 -10.27107,-2.54337 -4.2453,-6.26749 19.97111,-12.34283 33.63042,-11.91828 33.63042,1.04525 0,18.0947 -7.87334,26.70922 -27.83374,30.45381 -9.32546,1.74945 -11.49253,4.0994 -12.3993,13.44552 -0.92118,9.49502 -4.2208,10.15285 -10.93025,2.17913 z m -8.33108,-31.05155 c -11.75178,-12.98556 1.19385,-33.83136 26.13774,-42.08852 22.09646,-7.31457 28.19707,-18.08834 14.41809,-25.46265 -3.84393,-2.05721 -4.14976,-1.53447 -4.14976,7.09285 0,8.4615 -0.57618,9.51459 -6.29682,11.50882 -6.2968,2.19508 -6.2968,2.19508 -6.2968,-7.99507 0,-10.19015 0,-10.19015 12.06888,-13.87716 6.6379,-2.02787 14.84905,-5.06811 18.24707,-6.75608 5.87062,-2.91626 6.41839,-2.78972 11.00442,2.54183 15.05964,17.50787 5.68137,37.76724 -21.90746,47.32544 -22.96784,7.95728 -26.06142,9.96788 -25.31283,16.45167 0.50982,4.41549 -0.86027,6.68531 -6.26217,10.37468 -8.29371,5.6644 -7.38664,5.59555 -11.65036,0.88419 z m -8.61425,-43.06104 c -14.71202,-19.28846 -1.69937,-38.27989 36.0524,-52.61702 9.79333,-3.71922 17.10128,-8.05642 20.61928,-12.23733 5.14977,-6.12016 5.45094,-8.46454 2.12051,-16.50576 -1.12918,-2.72637 0.49439,-3.63208 8.4706,-4.72535 5.42713,-0.74387 11.24568,-2.49624 12.93009,-3.89418 4.05386,-3.36443 8.0875,1.9908 9.99249,13.26639 2.94123,17.40888 -10.41538,30.9503 -41.30061,41.87211 -26.98023,9.54088 -34.9219,19.24946 -22.73097,27.78832 4.02141,2.81671 3.71338,3.22078 -6.49053,8.51475 -13.42545,6.96539 -13.22401,6.98035 -19.66326,-1.46193 z m -6.68051,-52.94945 c -21.17509,-22.45215 5.55876,-59.54024 43.04425,-59.71569 27.157,-0.12709 57.98158,-11.3666 57.98158,-21.14171 0,-6.68166 -5.62764,-7.49533 -13.18684,-1.90658 -17.97956,13.29285 -38.26956,-3.35702 -21.39462,-17.55634 17.43493,-14.67051 56.62029,-1.90968 56.62029,18.43857 0,22.96802 -22.77779,38.56633 -66.00789,45.20242 -36.67897,5.63045 -45.26671,13.95575 -28.74018,27.8619 6.00085,5.04939 6.00085,5.04939 -4.75588,10.68128 -13.79432,7.22225 -15.08793,7.1199 -23.56071,-1.86385 z m 39.10721,-17.69152 c 0,-12.59362 0,-12.59362 6.2968,-12.59362 6.16102,0 6.29682,0.22744 6.29682,10.54662 0,10.02936 -3.67902,14.64061 -11.68079,14.64061 -0.50207,0 -0.91283,-5.66713 -0.91283,-12.59361 z m -54.5968,-35.46446 c -30.16722,-20.26054 -22.61961,-48.89061 14.11212,-53.53112 19.14156,-2.41823 37.96978,11.98413 30.74363,23.51689 -3.4828,5.55851 -18.9886,5.88357 -26.20355,0.54935 -8.74628,-6.46641 -14.42987,-5.76769 -14.42987,1.774 0,6.82437 10.3657,13.25988 25.85948,16.05482 8.01851,1.44643 8.01851,1.44643 -2.47278,7.43827 -5.77022,3.2955 -11.0872,6.95602 -11.81553,8.13448 -2.16548,3.50382 -6.21944,2.49333 -15.7935,-3.93669 z m 53.88514,-52.16613 c -0.75649,-21.64528 -1.37807,-47.566068 -1.38134,-57.601719 -0.005,-15.716848 -0.57426,-18.644755 -4.1051,-21.117853 -18.80981,-13.174912 0.22198,-42.687508 20.69926,-32.098292 11.86285,6.134517 13.33722,20.368431 3.34041,32.248978 -5.24795,6.236842 -5.24795,6.236842 -5.24795,62.080386 0,55.84355 0,55.84355 -5.96494,55.84355 -5.96495,0 -5.96495,0 -7.34034,-39.35505 z m -58.02478,-17.45854 c -3.1927,-2.10526 -6.97079,-5.42179 -8.39576,-7.37009 -2.43013,-3.32254 -3.1494,-3.32294 -11.59227,-0.006 -10.778545,4.23436 -21.793382,0.55268 -26.005698,-8.692319 -1.813319,-3.97981 -3.993515,-5.263301 -8.940465,-5.263301 -8.13167,0 -15.872124,-5.195545 -15.872124,-10.653682 0,-3.29589 -1.003257,-3.867049 -5.021292,-2.85859 -7.888434,1.979865 -24.363811,-8.854022 -24.363811,-16.021183 0,-0.722263 18.182031,-1.880728 40.404511,-2.574362 35.482,-1.107496 42.421869,-1.913475 56.963129,-6.615506 23.36215,-7.554303 29.71383,-7.210557 35.08853,1.898862 2.35373,3.989286 6.09994,7.831006 8.32494,8.537194 8.15401,2.587988 5.84558,50.490807 -2.51371,52.162677 -13.36731,2.67346 -32.05769,1.4249 -38.07598,-2.54355 z m 89.6292,2.08235 c -8.24327,-2.44708 -9.38785,-49.469495 -1.25385,-51.511 2.84456,-0.713939 5.76902,-3.179321 6.49881,-5.478637 3.7864,-11.929919 12.67282,-13.119472 37.78324,-5.057673 14.80109,4.751939 21.56796,5.532568 57.08674,6.585549 40.29527,1.194563 40.29527,1.194563 37.2206,7.140309 -3.824,7.394794 -14.34306,13.083484 -21.07062,11.39497 -3.64516,-0.91488 -5.0213,-0.386446 -5.0213,1.928124 0,5.669164 -7.97746,11.584148 -15.62335,11.584148 -5.75786,0 -7.96251,1.244118 -10.84158,6.11795 -6.10321,10.33191 -16.07153,13.09322 -26.89355,7.44973 -5.93967,-3.09745 -6.3553,-2.98192 -13.22382,3.67531 -7.44153,7.21259 -30.44568,10.39128 -44.66132,6.17122 z"
         style="fill:#000000" />
    </g>
  </g>
</svg>
