<?xml version="1.0" encoding="UTF-8" standalone="no"?>
<!-- Created with Inkscape (http://www.inkscape.org/) -->

<svg
   xmlns:dc="http://purl.org/dc/elements/1.1/"
   xmlns:cc="http://creativecommons.org/ns#"
   xmlns:rdf="http://www.w3.org/1999/02/22-rdf-syntax-ns#"
   xmlns:svg="http://www.w3.org/2000/svg"
   xmlns="http://www.w3.org/2000/svg"
   xmlns:sodipodi="http://sodipodi.sourceforge.net/DTD/sodipodi-0.dtd"
   xmlns:inkscape="http://www.inkscape.org/namespaces/inkscape"
   width="580"
   height="580"
   id="svg3051"
   version="1.1"
   inkscape:version="0.48.4 r9939"
   sodipodi:docname="New document 2">
  <defs
     id="defs3053" />
  <sodipodi:namedview
     id="base"
     pagecolor="#ffffff"
     bordercolor="#666666"
     borderopacity="1.0"
     inkscape:pageopacity="0.0"
     inkscape:pageshadow="2"
     inkscape:zoom="0.35"
     inkscape:cx="375"
     inkscape:cy="520"
     inkscape:document-units="px"
     inkscape:current-layer="layer1"
     showgrid="false"
     inkscape:window-width="607"
     inkscape:window-height="438"
     inkscape:window-x="881"
     inkscape:window-y="516"
     inkscape:window-maximized="0" />
  <metadata
     id="metadata3056">
    <rdf:RDF>
      <cc:Work
         rdf:about="">
        <dc:format>image/svg+xml</dc:format>
        <dc:type
           rdf:resource="http://purl.org/dc/dcmitype/StillImage" />
        <dc:title></dc:title>
      </cc:Work>
    </rdf:RDF>
  </metadata>
  <g
     inkscape:label="Layer 1"
     inkscape:groupmode="layer"
     id="layer1"
     transform="translate(0,-472.36218)">
    <path
       inkscape:connector-curvature="0"
       style="fill:#000000"
       d="m 287.51074,1034.3782 c -20.95962,-33.9134 16.62205,-77.84491 42.31055,-49.45942 7.9851,8.82343 4.26894,9.79674 -13.52547,3.54253 -15.84758,-5.56999 -15.84758,-5.56999 -17.66298,16.30249 -0.99849,12.0299 -2.06122,23.6964 -2.36163,25.9256 -0.65297,4.8453 -6.51911,7.3154 -8.76047,3.6888 z m -40.55517,-40.87343 c -0.90273,-1.46067 10.66634,-10.57327 25.70907,-20.25019 15.04269,-9.67693 27.35039,-19.54546 27.35039,-21.93006 0,-3.33179 -1.5326,-2.89585 -6.61937,1.88294 -8.33398,7.82938 -11.18833,7.87474 -10.02462,0.15929 0.68972,-4.57282 4.77285,-7.25446 16.64399,-10.93115 8.65153,-2.67954 18.62583,-6.43317 22.1651,-8.34143 9.34778,-5.03999 10.2625,13.30189 1.17092,23.47966 -8.5555,9.57763 -73.7361,40.23389 -76.39548,35.93094 z M 261.76,959.32652 c -14.83834,-17.63435 -6.83649,-32.97217 24.40702,-46.78295 17.69375,-7.82131 21.9024,-11.98746 17.03083,-16.85903 -2.33709,-2.33709 -3.18282,-2.29039 -3.18282,0.17574 0,1.84723 -3.86102,5.35518 -8.58005,7.79548 -8.62636,4.46088 -13.99538,-3.46559 -5.78466,-8.54008 27.21266,-16.81836 45.82486,-16.23987 45.82486,1.42425 0,24.65589 -10.72823,36.39402 -37.92629,41.4964 -12.70688,2.38382 -15.65975,5.58587 -16.89531,18.3209 -1.2552,12.93793 -5.75128,13.83429 -14.89358,2.96929 z m -11.35194,-42.31089 c -16.01298,-17.69413 1.62676,-46.09867 35.61533,-57.34988 30.10867,-9.96685 38.42136,-24.64721 19.64611,-34.69545 -5.23774,-2.80315 -5.65447,-2.09087 -5.65447,9.66473 0,11.52966 -0.78511,12.96459 -8.58005,15.68194 -8.58003,2.99101 -8.58003,2.99101 -8.58003,-10.89411 0,-13.8851 0,-13.8851 16.44507,-18.90902 9.0448,-2.76318 20.23334,-6.90582 24.86348,-9.20585 7.99931,-3.9737 8.74571,-3.80127 14.99464,3.46351 20.52028,23.85625 7.74143,51.46168 -29.85113,64.48572 -31.29601,10.84257 -35.51133,13.58223 -34.4913,22.41707 0.69467,6.01653 -1.17221,9.1094 -8.53285,14.13653 -11.30103,7.71832 -10.06505,7.62451 -15.8748,1.20481 z M 238.67029,858.3406 c -20.04664,-26.28249 -2.31558,-52.16024 49.12504,-71.69602 13.3444,-5.06782 23.30222,-10.9777 28.09586,-16.67462 7.01707,-8.33934 7.42746,-11.5338 2.88942,-22.49077 -1.53864,-3.71496 0.67364,-4.94908 11.54204,-6.43878 7.39502,-1.01358 15.32338,-3.40138 17.61856,-5.30621 5.52378,-4.58437 11.02004,2.71267 13.61579,18.0768 4.0077,23.72138 -14.19202,42.17293 -56.27628,57.055 -36.7633,13.00043 -47.58463,26.22936 -30.97326,37.86441 5.47958,3.83805 5.05987,4.38864 -8.844,11.60221 -18.29353,9.49104 -18.01905,9.51144 -26.79317,-1.99202 z m -9.10288,-72.14901 c -28.85322,-30.59333 7.57437,-81.1296 58.65215,-81.36867 37.00416,-0.17317 79.00578,-15.48814 79.00578,-28.80772 0,-9.10444 -7.66823,-10.21316 -17.96841,-2.59791 -24.49898,18.11286 -52.14616,-4.57428 -29.15234,-23.9223 23.75685,-19.99006 77.15089,-2.60213 77.15089,25.12442 0,31.29626 -31.03704,52.55053 -89.94244,61.59288 -49.97882,7.67206 -61.68048,19.01613 -39.16142,37.96467 8.17677,6.88031 8.17677,6.88031 -6.48036,14.55432 -18.79616,9.84105 -20.55884,9.70159 -32.10385,-2.53969 z m 53.28754,-24.10649 c 0,-17.16007 0,-17.16007 8.58003,-17.16007 8.39501,0 8.58005,0.3099 8.58005,14.37084 0,13.666 -5.01306,19.94932 -15.91626,19.94932 -0.68412,0 -1.24382,-7.72204 -1.24382,-17.16009 z m -74.39367,-48.3239 c -41.10592,-27.60705 -30.82153,-66.61843 19.22919,-72.9416 26.08231,-3.29508 51.73767,16.32959 41.89132,32.04416 -4.74568,7.57403 -25.87391,8.01696 -35.705,0.74852 -11.9177,-8.81113 -19.66217,-7.85903 -19.66217,2.41728 0,9.29888 14.12432,18.06794 35.23615,21.87631 10.92605,1.97091 10.92605,1.97091 -3.36939,10.13539 -7.86252,4.49046 -15.10745,9.47829 -16.09987,11.08407 -2.95068,4.77431 -8.47462,3.39741 -21.52023,-5.36413 z m 73.42395,-71.08165 c -1.03078,-29.49389 -1.87776,-64.8136 -1.8822,-78.4882 -0.007,-21.41578 -0.7825,-25.40536 -5.59362,-28.7752 -25.63029,-17.95216 0.30247,-58.16606 28.20483,-43.73718 16.16434,8.3589 18.17332,27.75406 4.55165,43.9425 -7.15086,8.49833 -7.15086,8.49833 -7.15086,84.59082 0,76.09251 0,76.09251 -8.12784,76.09251 -8.12785,0 -8.12785,0 -10.00196,-53.62525 z m -79.06466,-23.78904 c -4.35036,-2.86863 -9.49839,-7.38774 -11.44005,-10.04249 -3.3113,-4.52731 -4.29137,-4.52783 -15.79565,-0.008 -14.68686,5.76974 -29.6957,0.75308 -35.43541,-11.84417 -2.47082,-5.42289 -5.44157,-7.17179 -12.18228,-7.17179 -11.08023,0 -21.62739,-7.07945 -21.62739,-14.51672 0,-4.49098 -1.36703,-5.26923 -6.842008,-3.89511 -10.74879,2.69739 -33.19817,-12.06488 -33.19817,-21.83086 0,-0.98416 24.77486,-2.56268 55.055248,-3.50783 48.34781,-1.50909 57.8041,-2.6073 77.61804,-9.01431 31.8333,-10.2935 40.4881,-9.82511 47.81168,2.5874 3.20719,5.4358 8.3118,10.67054 11.34358,11.63279 11.11066,3.5264 7.96519,68.79884 -3.42518,71.07693 -18.21433,3.64286 -43.68187,1.94158 -51.88241,-3.46584 z m 122.1289,2.83741 c -11.2323,-3.3344 -12.79191,-67.40719 -1.70851,-70.18895 3.876,-0.97281 7.86089,-4.33215 8.85529,-7.46521 5.15935,-16.25572 17.26801,-17.8766 51.4835,-6.89157 20.16798,6.47498 29.38852,7.53868 77.78647,8.97346 54.90639,1.62772 54.90639,1.62772 50.71684,9.7294 -5.21059,10.07616 -19.54387,17.82757 -28.71086,15.5268 -4.96691,-1.24661 -6.84202,-0.52658 -6.84202,2.62727 0,7.72481 -10.8701,15.78456 -21.2884,15.78456 -7.84567,0 -10.84973,1.69523 -14.77276,8.33633 -8.31624,14.07828 -21.8991,17.84085 -36.64518,10.15102 -8.09341,-4.22058 -8.65975,-4.06316 -18.0188,5.00797 -10.13983,9.82789 -41.48532,14.15918 -60.85557,8.40892 z"
       id="path2452"
       sodipodi:nodetypes="cssssccsssssssccssssssssccsssssssssssccsssssssssccssssssssccsssccsssssssccssssssccssssssssssssccsssssssssssc" />
  </g>
</svg>
