<?xml version="1.0" encoding="UTF-8" standalone="no"?>
<!-- Created with Inkscape (http://www.inkscape.org/) -->

<svg
   xmlns:dc="http://purl.org/dc/elements/1.1/"
   xmlns:cc="http://creativecommons.org/ns#"
   xmlns:rdf="http://www.w3.org/1999/02/22-rdf-syntax-ns#"
   xmlns:svg="http://www.w3.org/2000/svg"
   xmlns="http://www.w3.org/2000/svg"
   xmlns:sodipodi="http://sodipodi.sourceforge.net/DTD/sodipodi-0.dtd"
   xmlns:inkscape="http://www.inkscape.org/namespaces/inkscape"
   width="580"
   height="580"
   id="svg3030"
   version="1.1"
   inkscape:version="0.48.4 r9939"
   sodipodi:docname="New document 2">
  <defs
     id="defs3032" />
  <sodipodi:namedview
     id="base"
     pagecolor="#ffffff"
     bordercolor="#666666"
     borderopacity="1.0"
     inkscape:pageopacity="0.0"
     inkscape:pageshadow="2"
     inkscape:zoom="0.35"
     inkscape:cx="375"
     inkscape:cy="520"
     inkscape:document-units="px"
     inkscape:current-layer="layer1"
     showgrid="false"
     inkscape:window-width="607"
     inkscape:window-height="438"
     inkscape:window-x="639"
     inkscape:window-y="408"
     inkscape:window-maximized="0" />
  <metadata
     id="metadata3035">
    <rdf:RDF>
      <cc:Work
         rdf:about="">
        <dc:format>image/svg+xml</dc:format>
        <dc:type
           rdf:resource="http://purl.org/dc/dcmitype/StillImage" />
        <dc:title></dc:title>
      </cc:Work>
    </rdf:RDF>
  </metadata>
  <g
     inkscape:label="Layer 1"
     inkscape:groupmode="layer"
     id="layer1"
     transform="translate(0,-472.36218)">
    <g
       transform="translate(-80.84117,475.35515)"
       id="g3003">
      <g
         transform="translate(20,12)"
         id="g3353">
        <path
           inkscape:connector-curvature="0"
           transform="translate(15.189701,15.189701)"
           style="opacity:0.98512196;fill:#000000;fill-opacity:1;stroke:#000000;stroke-width:15;stroke-linecap:round;stroke-linejoin:round;stroke-miterlimit:4;stroke-opacity:1;stroke-dashoffset:0"
           d="m 391.67731,24.490931 c -11.66352,4.361614 -27.64526,10.849786 -33.63434,10.849786 -5.98908,0 -10.84979,-4.860704 -10.84979,-10.849786 0,-5.989083 4.86071,-10.849787 10.84979,-10.849787 5.70837,0.219191 22.30594,6.964662 33.63434,10.849787 z"
           id="path3340"
           sodipodi:nodetypes="csscc" />
        <path
           inkscape:connector-curvature="0"
           sodipodi:nodetypes="csscc"
           id="path3345"
           d="m 396.38288,39.680632 c 11.66352,4.361614 27.64526,10.849786 33.63434,10.849786 5.98908,0 10.84979,-4.860704 10.84979,-10.849786 0,-5.989083 -4.86071,-10.849787 -10.84979,-10.849787 -5.70837,0.219191 -22.30594,6.964662 -33.63434,10.849787 z"
           style="opacity:0.98512196;fill:#000000;fill-opacity:1;stroke:#000000;stroke-width:15;stroke-linecap:round;stroke-linejoin:round;stroke-miterlimit:4;stroke-opacity:1;stroke-dashoffset:0" />
        <path
           inkscape:connector-curvature="0"
           style="fill:none;stroke:#000000;stroke-width:30;stroke-linecap:round;stroke-linejoin:miter;stroke-miterlimit:4;stroke-opacity:1;stroke-dasharray:none"
           d="m 401.4421,39.138141 0,66.183699 0.81374,25.76824"
           id="path3347" />
        <path
           sodipodi:type="arc"
           style="opacity:0.98512196;fill:#000000;fill-opacity:1;stroke:#000000;stroke-width:30;stroke-linecap:round;stroke-linejoin:round;stroke-miterlimit:4;stroke-opacity:1;stroke-dasharray:none;stroke-dashoffset:0"
           id="path3349"
           sodipodi:cx="401.44211"
           sodipodi:cy="125.39394"
           sodipodi:rx="22.784552"
           sodipodi:ry="45.569103"
           d="m 424.22666,125.39394 c 0,25.16712 -10.20099,45.56911 -22.78455,45.56911 -12.58356,0 -22.78455,-20.40199 -22.78455,-45.56911 0,-25.16712 10.20099,-45.569099 22.78455,-45.569099 12.58356,0 22.78455,20.401979 22.78455,45.569099 z" />
        <path
           inkscape:connector-curvature="0"
           style="fill:none;stroke:#000000;stroke-width:50;stroke-linecap:butt;stroke-linejoin:miter;stroke-miterlimit:4;stroke-opacity:1;stroke-dasharray:none"
           d="m 522.95971,130.81884 -177.93695,-1.00529 -14.10427,-0.0797 c -69.43863,-1.08498 -65.09872,64.01374 -65.09872,64.01374"
           id="path3351"
           sodipodi:nodetypes="cccc" />
      </g>
      <path
         inkscape:connector-curvature="0"
         sodipodi:nodetypes="ccsssccccsssccccccc"
         id="path2209"
         style="fill:#000000"
         d="m 401.20335,264.66519 -0.15776,0 c 0.18038,-0.15587 0.27968,-0.31299 0.27968,-0.47137 0,-3.73137 -50.95008,-6.75631 -113.80132,-6.75631 -62.85061,0 -113.80132,3.02494 -113.80132,6.75631 0,0.15838 0.0993,0.3155 0.2803,0.47137 l -0.2803,0 35.51742,270.83546 0.16027,0 c -0.31425,0.16969 -0.4808,0.3419 -0.4808,0.51599 0,2.57808 35.19312,4.66657 78.60569,4.66657 43.41319,0 78.60568,-2.08849 78.60568,-4.66657 0,-0.17409 -0.16718,-0.34693 -0.48079,-0.51599 l 35.55325,-270.83546 z m -58.35743,251.03449 c -1.81948,1.68373 -109.7354,0.89471 -111.55489,-0.78902 L 197.55212,281.06395 c 57.5856,0.1919 99.05576,3.05419 177.33559,-1.57804 l -32.04179,236.21377 z" />
    </g>
  </g>
</svg>
