<?xml version="1.0" encoding="UTF-8" standalone="no"?>
<!-- Created with Inkscape (http://www.inkscape.org/) -->

<svg
   xmlns:dc="http://purl.org/dc/elements/1.1/"
   xmlns:cc="http://creativecommons.org/ns#"
   xmlns:rdf="http://www.w3.org/1999/02/22-rdf-syntax-ns#"
   xmlns:svg="http://www.w3.org/2000/svg"
   xmlns="http://www.w3.org/2000/svg"
   xmlns:sodipodi="http://sodipodi.sourceforge.net/DTD/sodipodi-0.dtd"
   xmlns:inkscape="http://www.inkscape.org/namespaces/inkscape"
   width="580"
   height="580"
   id="svg3122"
   version="1.1"
   inkscape:version="0.48.4 r9939"
   sodipodi:docname="New document 2">
  <defs
     id="defs3124" />
  <sodipodi:namedview
     id="base"
     pagecolor="#ffffff"
     bordercolor="#666666"
     borderopacity="1.0"
     inkscape:pageopacity="0.0"
     inkscape:pageshadow="2"
     inkscape:zoom="0.35"
     inkscape:cx="35"
     inkscape:cy="520"
     inkscape:document-units="px"
     inkscape:current-layer="layer1"
     showgrid="false"
     inkscape:window-width="1920"
     inkscape:window-height="1124"
     inkscape:window-x="0"
     inkscape:window-y="24"
     inkscape:window-maximized="1" />
  <metadata
     id="metadata3127">
    <rdf:RDF>
      <cc:Work
         rdf:about="">
        <dc:format>image/svg+xml</dc:format>
        <dc:type
           rdf:resource="http://purl.org/dc/dcmitype/StillImage" />
        <dc:title></dc:title>
      </cc:Work>
    </rdf:RDF>
  </metadata>
  <g
     inkscape:label="Layer 1"
     inkscape:groupmode="layer"
     id="layer1"
     transform="translate(0,-472.36218)">
    <g
       transform="translate(-3.1875,464.12781)"
       id="g3103">
      <path
         inkscape:connector-curvature="0"
         sodipodi:nodetypes="cccssssssscccscsssssscc"
         id="path15140"
         d="m 111.25,35.5625 c -3.03143,-0.133311 -5.87816,2.622081 -5.84375,5.65625 l 1.9375,275.5625 c 0.0509,7.16828 4.72869,12.80587 10.625,17.90625 5.89631,5.10038 13.58165,9.76272 22.03125,13.875 16.8992,8.22456 36.44716,14.21875 50.6875,14.21875 18.38144,0 40.00616,-7.16111 61.09375,-14.0625 21.08759,-6.90139 41.70047,-13.5 55.34375,-13.5 13.64328,0 30.07778,6.49103 47.75,13.40625 17.67222,6.91522 36.65102,14.15625 56.4375,14.15625 38.951,0 82.1875,-22.03125 82.1875,-22.03125 1.84545,-0.92311 3.09127,-2.93656 3.09375,-5 l 0,-288.0625 c -0.004,-1.894847 -1.04391,-3.755672 -2.65597,-4.751535 -1.61205,-0.995863 -3.74163,-1.093168 -5.43778,-0.248465 0,0 -42.59019,20.84375 -77.1875,20.84375 -16.98768,0 -34.77407,-6.531159 -52.34375,-13.40625 -17.56968,-6.875091 -34.8419,-14.15625 -51.84375,-14.15625 -17.00185,0 -37.76304,7.173584 -58.8125,14.0625 -21.04946,6.888916 -42.2968,13.5 -57.625,13.5 -15.307,0 -34.85293,-6.660338 -50.21875,-13.5 C 125.10293,43.191588 113.90625,36.375 113.90625,36.375 113.10736,35.887881 112.18469,35.60565 111.25,35.5625 z"
         style="font-size:medium;font-style:normal;font-variant:normal;font-weight:normal;font-stretch:normal;text-indent:0;text-align:start;text-decoration:none;line-height:normal;letter-spacing:normal;word-spacing:normal;text-transform:none;direction:ltr;block-progression:tb;writing-mode:lr-tb;text-anchor:start;color:#000000;fill:#000000;fill-opacity:1;fill-rule:nonzero;stroke:none;stroke-width:11.19520569;marker:none;visibility:visible;display:inline;overflow:visible;enable-background:accumulate;font-family:Bitstream Vera Sans;-inkscape-font-specification:Bitstream Vera Sans" />
      <path
         inkscape:connector-curvature="0"
         sodipodi:nodetypes="ccccccccc"
         id="path15180"
         d="m 95.375,33.3125 c -2.92825,0.0023 -5.591443,2.6655 -5.59375,5.59375 l 0,518.65625 c 0.0023,2.92825 2.6655,5.59144 5.59375,5.59375 l 16.40625,0 c 2.92825,-0.002 5.59144,-2.6655 5.59375,-5.59375 l 0,-518.65625 c -0.002,-2.92825 -2.6655,-5.591443 -5.59375,-5.59375 l -16.40625,0 z"
         style="font-size:medium;font-style:normal;font-variant:normal;font-weight:normal;font-stretch:normal;text-indent:0;text-align:start;text-decoration:none;line-height:normal;letter-spacing:normal;word-spacing:normal;text-transform:none;direction:ltr;block-progression:tb;writing-mode:lr-tb;text-anchor:start;color:#000000;fill:#000000;fill-opacity:1;fill-rule:evenodd;stroke:none;stroke-width:11.19520569;marker:none;visibility:visible;display:inline;overflow:visible;enable-background:accumulate;font-family:Bitstream Vera Sans;-inkscape-font-specification:Bitstream Vera Sans" />
      <path
         inkscape:connector-curvature="0"
         id="path5095"
         d="m 137.82604,86.126278 c 0,0 -6.19021,30.615702 12.53125,50.312502 9.70739,11.54952 32.14469,22.26486 51.875,26.09375 l 31.875,27.6875 c -5.68585,-2.848 -12.46855,-5.51564 -20.21875,-7.3125 -25.42039,-5.89364 -56.98778,8.3753 -56.65625,7.34375 0,0 15.39182,31.6811 41.84375,37.90625 15.24997,4.58724 45.93471,-1.13268 54,-20.1875 19.71768,18.34854 36.84024,29.10096 52.15625,35.71875 -16.56455,-0.0275 -33.15625,1.43984 -49.3125,5.09375 -21.7782,6.03187 -31.836,22.94187 -53.6875,38.28125 -1.55921,1.3368 -6.82269,7.75071 -8.875,8.25 23.16797,10.1509 46.89942,27.44972 67.875,27.40625 41.24486,-0.0855 75.76391,-34.53254 70.40625,-70.65625 8.93511,1.91122 17.28247,2.93673 25.28125,4.125 14.84401,2.20517 28.36439,5.01351 43.31249,14.9375 14.9481,9.92399 31.42,27.18788 51.25,58.75 l 6.2813,-3.96875 c -20.1644,-32.09426 -37.2878,-50.24699 -53.4375,-60.96875 -16.1498,-10.72176 -31.18326,-13.78833 -46.28129,-16.03125 -6.89607,-1.02446 -13.84284,-1.87032 -21.03125,-3.1875 31.43943,-23.68813 15.98523,-109.52087 -53.09375,-129.75 -13.69875,60.18932 9.59378,100.07869 37.59375,126.09375 -18.67408,-5.57534 -39.82852,-16.64499 -66.6875,-42.53125 31.63023,-40.64262 16.21324,-80.62261 -34.75,-112.937502 -16.3075,48.098162 -2.23983,73.869552 17.5,96.875002 l -28.59375,-24.875 c -1.0146,-8.60933 -4.66662,-26.60015 -17.90625,-40.4375 -18.03996,-18.854422 -54.09238,-31.349762 -53.25,-32.031252 z"
         style="font-size:medium;font-style:normal;font-variant:normal;font-weight:normal;font-stretch:normal;text-indent:0;text-align:start;text-decoration:none;line-height:normal;letter-spacing:normal;word-spacing:normal;text-transform:none;direction:ltr;block-progression:tb;writing-mode:lr-tb;text-anchor:start;color:#000000;fill:#000000;fill-opacity:1;stroke:#000000;stroke-width:2.5019691;stroke-linecap:round;stroke-linejoin:round;stroke-miterlimit:4;stroke-opacity:1;stroke-dasharray:none;marker:none;visibility:visible;display:inline;overflow:visible;enable-background:accumulate;font-family:Bitstream Vera Sans;-inkscape-font-specification:Bitstream Vera Sans" />
    </g>
  </g>
</svg>
