<?xml version="1.0" encoding="UTF-8" standalone="no"?>
<!-- Created with Inkscape (http://www.inkscape.org/) -->

<svg
   xmlns:dc="http://purl.org/dc/elements/1.1/"
   xmlns:cc="http://creativecommons.org/ns#"
   xmlns:rdf="http://www.w3.org/1999/02/22-rdf-syntax-ns#"
   xmlns:svg="http://www.w3.org/2000/svg"
   xmlns="http://www.w3.org/2000/svg"
   xmlns:xlink="http://www.w3.org/1999/xlink"
   xmlns:sodipodi="http://sodipodi.sourceforge.net/DTD/sodipodi-0.dtd"
   xmlns:inkscape="http://www.inkscape.org/namespaces/inkscape"
   version="1.0"
   width="580"
   height="580"
   id="svg2"
   sodipodi:version="0.32"
   inkscape:version="0.48.4 r9939"
   sodipodi:docname="marketplace.svg"
   inkscape:output_extension="org.inkscape.output.svg.inkscape">
  <metadata
     id="metadata2975">
    <rdf:RDF>
      <cc:Work
         rdf:about="">
        <dc:format>image/svg+xml</dc:format>
        <dc:type
           rdf:resource="http://purl.org/dc/dcmitype/StillImage" />
        <cc:license
           rdf:resource="http://web.resource.org/cc/PublicDomain" />
        <dc:language>en</dc:language>
        <dc:title />
      </cc:Work>
    </rdf:RDF>
  </metadata>
  <sodipodi:namedview
     inkscape:window-height="998"
     inkscape:window-width="1920"
     inkscape:pageshadow="2"
     inkscape:pageopacity="0.0"
     guidetolerance="10.0"
     gridtolerance="10.0"
     objecttolerance="10.0"
     borderopacity="1.0"
     bordercolor="#666666"
     pagecolor="#ffffff"
     id="base"
     inkscape:zoom="0.9216771"
     inkscape:cx="56.117191"
     inkscape:cy="302.89724"
     inkscape:window-x="0"
     inkscape:window-y="24"
     inkscape:current-layer="svg2"
     showgrid="false"
     inkscape:window-maximized="1"
     showguides="true"
     inkscape:guide-bbox="true" />
  <defs
     id="defs4">
    <inkscape:perspective
       sodipodi:type="inkscape:persp3d"
       inkscape:vp_x="0 : 290 : 1"
       inkscape:vp_y="6.1230318e-14 : 1000 : 0"
       inkscape:vp_z="580 : 290 : 1"
       inkscape:persp3d-origin="290 : 193.33333 : 1"
       id="perspective2441" />
    <inkscape:perspective
       id="perspective3452"
       inkscape:persp3d-origin="30 : 20 : 1"
       inkscape:vp_z="60 : 30 : 1"
       inkscape:vp_y="0 : 1000 : 0"
       inkscape:vp_x="0 : 30 : 1"
       sodipodi:type="inkscape:persp3d" />
    <symbol
       viewBox="244.5 110 489 219.9"
       id="symbol-university">
      <path
         id="path4460"
         d="M79,43l57,119c0,0,21-96,104-96s124,106,124,106l43-133l82-17L0,17L79,43z" />
      <path
         id="path4462"
         d="M94,176l-21,39"
         stroke-width="20"
         stroke="#000000"
         fill="none" />
      <path
         id="path4464"
         d="M300,19c0,10.5-22.6,19-50.5,19S199,29.5,199,19s22.6-19,50.5-19S300,8.5,300,19z" />
      <path
         id="path4466"
         d="M112,216l-16-38L64,88c0,0-9-8-4-35s16-24,16-24"
         stroke-width="20"
         stroke="#000000"
         ill="none" />
    </symbol>
    <inkscape:perspective
       id="perspective4471"
       inkscape:persp3d-origin="372.04724 : 350.78739 : 1"
       inkscape:vp_z="744.09448 : 526.18109 : 1"
       inkscape:vp_y="0 : 1000 : 0"
       inkscape:vp_x="0 : 526.18109 : 1"
       sodipodi:type="inkscape:persp3d" />
    <inkscape:perspective
       id="perspective4668"
       inkscape:persp3d-origin="6 : 4 : 1"
       inkscape:vp_z="12 : 6 : 1"
       inkscape:vp_y="0 : 1000 : 0"
       inkscape:vp_x="0 : 6 : 1"
       sodipodi:type="inkscape:persp3d" />
    <inkscape:perspective
       id="perspective3826"
       inkscape:persp3d-origin="0.5 : 0.33333333 : 1"
       inkscape:vp_z="1 : 0.5 : 1"
       inkscape:vp_y="0 : 1000 : 0"
       inkscape:vp_x="0 : 0.5 : 1"
       sodipodi:type="inkscape:persp3d" />
    <inkscape:perspective
       id="perspective3855"
       inkscape:persp3d-origin="0.5 : 0.33333333 : 1"
       inkscape:vp_z="1 : 0.5 : 1"
       inkscape:vp_y="0 : 1000 : 0"
       inkscape:vp_x="0 : 0.5 : 1"
       sodipodi:type="inkscape:persp3d" />
    <inkscape:perspective
       id="perspective3909"
       inkscape:persp3d-origin="0.5 : 0.33333333 : 1"
       inkscape:vp_z="1 : 0.5 : 1"
       inkscape:vp_y="0 : 1000 : 0"
       inkscape:vp_x="0 : 0.5 : 1"
       sodipodi:type="inkscape:persp3d" />
    <inkscape:perspective
       id="perspective3950"
       inkscape:persp3d-origin="0.5 : 0.33333333 : 1"
       inkscape:vp_z="1 : 0.5 : 1"
       inkscape:vp_y="0 : 1000 : 0"
       inkscape:vp_x="0 : 0.5 : 1"
       sodipodi:type="inkscape:persp3d" />
    <inkscape:perspective
       id="perspective3972"
       inkscape:persp3d-origin="0.5 : 0.33333333 : 1"
       inkscape:vp_z="1 : 0.5 : 1"
       inkscape:vp_y="0 : 1000 : 0"
       inkscape:vp_x="0 : 0.5 : 1"
       sodipodi:type="inkscape:persp3d" />
    <inkscape:perspective
       id="perspective3994"
       inkscape:persp3d-origin="0.5 : 0.33333333 : 1"
       inkscape:vp_z="1 : 0.5 : 1"
       inkscape:vp_y="0 : 1000 : 0"
       inkscape:vp_x="0 : 0.5 : 1"
       sodipodi:type="inkscape:persp3d" />
    <inkscape:perspective
       id="perspective4016"
       inkscape:persp3d-origin="0.5 : 0.33333333 : 1"
       inkscape:vp_z="1 : 0.5 : 1"
       inkscape:vp_y="0 : 1000 : 0"
       inkscape:vp_x="0 : 0.5 : 1"
       sodipodi:type="inkscape:persp3d" />
    <inkscape:perspective
       id="perspective4837"
       inkscape:persp3d-origin="0.5 : 0.33333333 : 1"
       inkscape:vp_z="1 : 0.5 : 1"
       inkscape:vp_y="0 : 1000 : 0"
       inkscape:vp_x="0 : 0.5 : 1"
       sodipodi:type="inkscape:persp3d" />
    <inkscape:perspective
       id="perspective4971"
       inkscape:persp3d-origin="0.5 : 0.33333333 : 1"
       inkscape:vp_z="1 : 0.5 : 1"
       inkscape:vp_y="0 : 1000 : 0"
       inkscape:vp_x="0 : 0.5 : 1"
       sodipodi:type="inkscape:persp3d" />
    <inkscape:perspective
       id="perspective6216"
       inkscape:persp3d-origin="0.5 : 0.33333333 : 1"
       inkscape:vp_z="1 : 0.5 : 1"
       inkscape:vp_y="0 : 1000 : 0"
       inkscape:vp_x="0 : 0.5 : 1"
       sodipodi:type="inkscape:persp3d" />
    <inkscape:perspective
       id="perspective6764"
       inkscape:persp3d-origin="0.5 : 0.33333333 : 1"
       inkscape:vp_z="1 : 0.5 : 1"
       inkscape:vp_y="0 : 1000 : 0"
       inkscape:vp_x="0 : 0.5 : 1"
       sodipodi:type="inkscape:persp3d" />
    <inkscape:perspective
       id="perspective6817"
       inkscape:persp3d-origin="0.5 : 0.33333333 : 1"
       inkscape:vp_z="1 : 0.5 : 1"
       inkscape:vp_y="0 : 1000 : 0"
       inkscape:vp_x="0 : 0.5 : 1"
       sodipodi:type="inkscape:persp3d" />
    <radialGradient
       gradientUnits="userSpaceOnUse"
       gradientTransform="scale(0.79354273,1.2601716)"
       xlink:href="#linearGradient829"
       id="radialGradient874"
       cx="180.2453"
       cy="198.41902"
       r="101.58017"
       fx="180.2453"
       fy="198.41902" />
    <linearGradient
       id="linearGradient829">
      <stop
         style="stop-color: rgb(255, 255, 255); stop-opacity: 0.341667;"
         offset="0.0000000"
         id="stop830" />
      <stop
         style="stop-color: rgb(255, 255, 255); stop-opacity: 0;"
         offset="1.0000000"
         id="stop831" />
    </linearGradient>
    <radialGradient
       gradientUnits="userSpaceOnUse"
       gradientTransform="scale(1.007004,0.99304475)"
       xlink:href="#linearGradient829"
       id="radialGradient832"
       cx="360.85146"
       cy="167.47372"
       r="46.394721"
       fx="360.85146"
       fy="167.47372" />
    <linearGradient
       id="linearGradient6826">
      <stop
         style="stop-color: rgb(255, 255, 255); stop-opacity: 0.341667;"
         offset="0.0000000"
         id="stop6828" />
      <stop
         style="stop-color: rgb(255, 255, 255); stop-opacity: 0;"
         offset="1.0000000"
         id="stop6830" />
    </linearGradient>
    <linearGradient
       gradientUnits="userSpaceOnUse"
       gradientTransform="scale(0.74491357,1.3424376)"
       xlink:href="#linearGradient855"
       id="linearGradient850"
       x1="465.29425"
       y1="248.24467"
       x2="463.27056"
       y2="405.7687"
       spreadMethod="pad" />
    <linearGradient
       id="linearGradient855">
      <stop
         style="stop-color: rgb(255, 255, 255); stop-opacity: 0;"
         offset="0.0000000"
         id="stop856" />
      <stop
         style="stop-color: rgb(255, 166, 23); stop-opacity: 0.733333;"
         offset="1.0000000"
         id="stop857" />
    </linearGradient>
    <linearGradient
       gradientUnits="userSpaceOnUse"
       gradientTransform="scale(1.4586159,0.68558144)"
       xlink:href="#linearGradient855"
       id="linearGradient854"
       x1="157.80581"
       y1="120.96176"
       x2="155.40575"
       y2="231.63491" />
    <linearGradient
       id="linearGradient6837">
      <stop
         style="stop-color: rgb(255, 255, 255); stop-opacity: 0;"
         offset="0.0000000"
         id="stop6839" />
      <stop
         style="stop-color: rgb(255, 166, 23); stop-opacity: 0.733333;"
         offset="1.0000000"
         id="stop6841" />
    </linearGradient>
    <inkscape:perspective
       id="perspective6928"
       inkscape:persp3d-origin="0.5 : 0.33333333 : 1"
       inkscape:vp_z="1 : 0.5 : 1"
       inkscape:vp_y="0 : 1000 : 0"
       inkscape:vp_x="0 : 0.5 : 1"
       sodipodi:type="inkscape:persp3d" />
    <inkscape:perspective
       id="perspective10781"
       inkscape:persp3d-origin="0.5 : 0.33333333 : 1"
       inkscape:vp_z="1 : 0.5 : 1"
       inkscape:vp_y="0 : 1000 : 0"
       inkscape:vp_x="0 : 0.5 : 1"
       sodipodi:type="inkscape:persp3d" />
    <inkscape:perspective
       id="perspective10806"
       inkscape:persp3d-origin="0.5 : 0.33333333 : 1"
       inkscape:vp_z="1 : 0.5 : 1"
       inkscape:vp_y="0 : 1000 : 0"
       inkscape:vp_x="0 : 0.5 : 1"
       sodipodi:type="inkscape:persp3d" />
    <inkscape:perspective
       id="perspective10878"
       inkscape:persp3d-origin="0.5 : 0.33333333 : 1"
       inkscape:vp_z="1 : 0.5 : 1"
       inkscape:vp_y="0 : 1000 : 0"
       inkscape:vp_x="0 : 0.5 : 1"
       sodipodi:type="inkscape:persp3d" />
    <inkscape:perspective
       id="perspective10919"
       inkscape:persp3d-origin="0.5 : 0.33333333 : 1"
       inkscape:vp_z="1 : 0.5 : 1"
       inkscape:vp_y="0 : 1000 : 0"
       inkscape:vp_x="0 : 0.5 : 1"
       sodipodi:type="inkscape:persp3d" />
  </defs>
  <g
     id="layer3"
     inkscape:label="Layout"
     style="display:none;stroke:#757575;stroke-opacity:1"
     transform="matrix(48.14969,0,0,48.14969,-536.27327,-33.306752)">
    <rect
       style="fill:none;stroke:#757575;stroke-width:0.10000000000000001;stroke-miterlimit:4;stroke-dasharray:none;stroke-opacity:1;display:inline"
       id="rect4134"
       width="10"
       height="10"
       x="1"
       y="1" />
    <rect
       style="fill:none;stroke:#757575;stroke-width:0.10000000000000001;stroke-miterlimit:4;stroke-dasharray:none;stroke-opacity:1;display:inline"
       id="rect4136"
       width="8"
       height="8"
       x="2"
       y="2" />
  </g>
  <g
     id="g3338"
     transform="matrix(1.3973279,-0.2437849,0.2437849,1.3973279,-185.07402,-56.183307)" />
  <path
     style="fill:#000000;;fill-opacity:1;stroke:#000000;;stroke-width:10.98984432;stroke-linecap:round;stroke-linejoin:round;stroke-miterlimit:4;stroke-opacity:1;stroke-dasharray:none"
     d="m 52.563382,155.99203 c 29.546561,13.99402 60.765028,15.58941 94.300788,0 l 29.70446,-102.365016 -74.17088,0 z"
     id="path3250"
     inkscape:connector-curvature="0"
     sodipodi:nodetypes="ccccc" />
  <path
     sodipodi:nodetypes="ccccc"
     inkscape:connector-curvature="0"
     id="path3252"
     d="m 147.18933,155.99203 c 29.54656,13.99402 60.76502,15.58941 94.30078,0 l 10.19396,-102.365016 -74.17088,0 z"
     style="fill:none;stroke:#000000;;stroke-width:10.98984432;stroke-linecap:round;stroke-linejoin:round;stroke-miterlimit:4;stroke-opacity:1;stroke-dasharray:none" />
  <path
     style="fill:#000000;;fill-opacity:1;stroke:#000000;;stroke-width:10.98984432;stroke-linecap:round;stroke-linejoin:round;stroke-miterlimit:4;stroke-opacity:1;stroke-dasharray:none"
     d="m 240.83975,155.99203 c 29.54656,13.99402 60.76502,15.58941 94.30078,0 l -9.31654,-102.365016 -74.17089,0 z"
     id="path3039"
     inkscape:connector-curvature="0"
     sodipodi:nodetypes="ccccc" />
  <path
     sodipodi:nodetypes="ccccc"
     inkscape:connector-curvature="0"
     id="path3041"
     d="m 335.46569,155.99203 c 29.54656,13.99402 60.76503,15.58941 94.30079,0 l -28.82705,-102.365016 -74.17089,0 z"
     style="fill:none;stroke:#000000;;stroke-width:10.98984432;stroke-linecap:round;stroke-linejoin:round;stroke-miterlimit:4;stroke-opacity:1;stroke-dasharray:none" />
  <path
     style="fill:#000000;;fill-opacity:1;stroke:#000000;;stroke-width:10.98984432;stroke-linecap:round;stroke-linejoin:round;stroke-miterlimit:4;stroke-opacity:1;stroke-dasharray:none"
     d="m 429.11611,155.99203 c 29.54656,13.99402 60.76503,15.58941 94.30079,0 l -48.33756,-102.365016 -74.17088,0 z"
     id="path3043"
     inkscape:connector-curvature="0"
     sodipodi:nodetypes="ccccc" />
  <g
     id="g4244"
     transform="translate(0,14)">
    <path
       inkscape:connector-curvature="0"
       id="path3834"
       d="m 88.674599,376.21895 399.655541,0"
       style="fill:none;stroke:#000000;;stroke-width:28.98771858;stroke-linecap:round;stroke-linejoin:round;stroke-miterlimit:4;stroke-opacity:1;stroke-dasharray:none" />
    <path
       style="fill:none;stroke:#000000;;stroke-width:25;stroke-linecap:round;stroke-linejoin:round;stroke-miterlimit:4;stroke-opacity:1;stroke-dasharray:none"
       d="m 126.70277,514.91701 0,-130.49777"
       id="path3846"
       inkscape:connector-curvature="0"
       sodipodi:nodetypes="cc" />
    <path
       inkscape:connector-curvature="0"
       id="path3848"
       d="m 446.26059,514.91701 0,-130.49777"
       style="fill:none;stroke:#000000;;stroke-width:25;stroke-linecap:round;stroke-linejoin:round;stroke-miterlimit:4;stroke-opacity:1;stroke-dasharray:none"
       sodipodi:nodetypes="cc" />
  </g>
  <g
     id="g4238"
     transform="matrix(1.0962905,0,0,1.0962905,3.593298,-35.169215)">
    <path
       style="fill:#000000;"
       d="m 209.74503,225.79765 c 0,0 -10.56174,35.79543 -41.59499,25.12539 -0.005,0.0224 3.7446,-31.18541 41.59499,-25.12539 z"
       id="path6571"
       inkscape:connector-curvature="0" />
    <path
       style="fill:#000000;"
       d="m 157.72652,270.07711 c 5.36274,-5.30508 12.68607,-8.50543 20.81666,-8.50543 16.40541,0 29.75463,13.29154 29.75463,29.72577 0,0.60547 0,1.12444 -0.0288,1.75875 h -0.0576 c -0.51898,6.42953 -2.56606,14.41598 -7.40985,24.33419 0,0 -8.33244,15.94407 -15.02146,23.2674 l -0.60547,0.57664 c -3.22916,3.25801 -7.78462,5.30508 -12.71487,5.30508 -6.05474,0 -11.41748,-2.94086 -14.67549,-7.49631 h -0.0865 c -3.25802,4.55545 -8.62076,7.49631 -14.67547,7.49631 -4.98794,0 -9.48572,-2.01824 -12.74374,-5.30508 l -0.60546,-0.57664 c -6.63136,-7.32333 -15.02146,-23.2674 -15.02146,-23.2674 -4.84377,-9.91821 -6.89084,-17.96232 -7.35216,-24.33419 h -0.14415 c -0.0865,-0.60547 -0.0865,-1.12445 -0.0865,-1.75875 0,-16.43423 13.34921,-29.72577 29.81226,-29.72577 8.10178,0 15.42511,3.20035 20.84552,8.50543"
       id="path6573"
       inkscape:connector-curvature="0" />
    <path
       id="path10957"
       d="m 113.68291,214.69051 c 0,0 6.27532,31.27326 33.50285,24.54444 0.003,0.0195 -0.82177,-26.83164 -33.50285,-24.54444 z"
       style="fill:#000000;"
       inkscape:connector-curvature="0" />
    <path
       id="path10959"
       d="m 156.85947,263.78173 c 0,0 -0.30241,-32.11059 -3.62889,-40.48726 -3.32648,-8.37667 11.18908,0 11.18908,0 l -7.56019,40.48726 z"
       style="fill:#000000;;fill-opacity:1;stroke:#000000;;stroke-width:1.3514632;stroke-linecap:butt;stroke-linejoin:miter;stroke-miterlimit:4;stroke-opacity:1;stroke-dasharray:none"
       inkscape:connector-curvature="0" />
  </g>
  <path
     d="m 448.07555,216.73817 c -1.37234,0.004 -2.5137,0.3754 -3.44615,0.82325 -1.63088,0.80808 -2.79675,1.84714 -3.90565,2.91009 -1.6321,1.59473 -3.07137,3.33741 -4.30769,4.70975 -0.61143,0.68188 -1.16067,1.274 -1.56992,1.64649 -0.20218,0.18686 -0.36943,0.3192 -0.45949,0.38291 -0.0153,0.0116 -0.0285,0.0124 -0.0383,0.0191 l -7.52411,3.23555 c -0.26588,-0.004 -0.51478,0 -0.78496,0 -10.27965,0.0141 -19.47722,2.99694 -28.16276,5.72445 -9.57511,3.03262 -18.72013,6.63623 -27.95216,8.42394 -4.23953,0.83321 -9.02005,1.06234 -14.01437,1.45505 -4.99127,0.40435 -10.21992,0.95573 -15.35454,2.75692 -4.56609,1.60146 -8.43267,3.41828 -12.57848,6.01163 -1.8159,1.14689 -3.41277,2.52764 -4.93949,3.65676 -1.48444,1.13647 -2.91193,1.93337 -3.44616,2.04855 l -2.35487,1.56991 c 0,0 -2.12125,1.621 -3.22173,2.56456 l -4.43085,3.79906 c -4.45291,3.81797 -5.90476,13.47614 -5.9023,18.86991 0,6.1e-4 0,0.004 0,0.0191 0,0.0147 0,0.0496 0,0.0766 0.0386,8.26526 2.71986,16.08191 7.00718,23.03181 4.30693,6.97931 10.2259,13.14717 16.94361,18.34121 13.49729,10.35317 30.44534,17.09049 46.44653,17.15421 3.12575,-10e-4 6.22805,-0.26344 9.24719,-0.8424 2.82309,-0.51829 5.2763,-1.86352 7.14121,-3.58017 1.1726,-1.07704 3.36038,-2.28978 4.13538,-3.56103 1.35703,-0.61449 1.42579,-1.46821 2.46975,-2.56547 1.54081,-1.59779 2.54954,-3.36115 3.71419,-5.533 1.92189,-3.63179 4.26343,-7.50588 6.1265,-11.67864 2.12468,-4.81421 2.8888,-9.89262 3.61847,-14.64617 0.70576,-4.75294 1.36881,-9.20078 2.69949,-12.63591 1.35579,-3.5552 3.71128,-6.54678 6.64342,-9.72582 2.90886,-3.17598 6.36712,-6.46085 9.32377,-10.70223 2.30172,-3.3414 5.01852,-6.29728 7.39009,-10.013 2.08668,-3.24398 3.78128,-7.23249 4.13539,-12.0424 l 5.93505,-3.12069 0.49778,-0.51692 c 0.64205,-0.63472 1.15959,-0.90749 1.97197,-1.16787 1.20079,-0.39148 3.09633,-0.46668 5.51385,-0.67008 2.35992,-0.22117 5.52319,-0.71022 8.3665,-3.00582 1.17261,-0.9539 2.16465,-1.96952 2.92923,-3.19727 0.76091,-1.21244 1.26972,-2.7076 1.26359,-4.25026 0.004,-1.25777 -0.34002,-2.47449 -0.84239,-3.44615 -0.89754,-1.71481 -2.12069,-2.78863 -3.33128,-3.65676 -1.8355,-1.28289 -3.80073,-2.11318 -5.64787,-2.77607 -0.80441,-0.28366 -1.58937,-0.53714 -2.31659,-0.74667 -0.40496,-0.89876 -0.88344,-1.72078 -1.53162,-2.50803 -0.61816,-0.73764 -1.41094,-1.42993 -2.37402,-1.91454 -0.95757,-0.49012 -2.07459,-0.73426 -3.0824,-0.72752 z m -0.1723,4.59488 c 1.44956,-0.0986 2.74388,1.06531 3.6759,4.40342 4.38657,0.98637 16.12096,4.50727 8.53881,10.6448 -4.66595,3.7776 -11.41245,0.31183 -16.23523,5.20752 l -7.69642,4.03967 c -0.004,-0.14643 -0.0118,-0.29147 -0.0191,-0.44035 -1.94578,0.70639 -3.94347,1.56119 -5.9542,1.93368 -0.28917,-2.04625 -0.74299,-4.03752 -1.28273,-5.99248 -1.49609,0.59243 -3.31796,1.11196 -4.80548,1.37846 0.56854,-2.7704 1.20218,-4.89171 2.62291,-7.00719 l 9.51522,-4.07795 c 3.1163,-1.3545 7.93591,-9.83759 11.64036,-10.08958 z m -121.13242,43.70876 c 0.34995,-0.0108 0.70186,1.5e-4 1.05299,0 8.37125,0.0165 17.10917,2.87853 23.77848,5.39898 5.4189,2.05973 9.89645,3.96844 13.97608,6.62428 4.08086,2.65094 7.69351,6.04685 11.39147,10.87454 5.79261,7.56868 11.81878,17.02447 14.26326,26.89917 0.58754,2.39852 0.97518,5.43451 0.97641,8.61539 -0.008,3.50926 -0.45964,7.18868 -1.8571,10.3959 -1.35273,3.17721 -3.97426,6.03047 -7.88787,6.7583 -2.70484,0.51891 -5.51033,0.76459 -8.3665,0.76581 -14.68338,-0.0245 -30.91387,-6.3786 -43.67047,-16.19693 -12.70881,-9.82139 -22.10886,-23.22603 -22.15113,-37.812 -0.001,-4.73396 1.02144,-9.56133 3.23556,-14.28241 l 3.84821,-4.28855 4.25026,-2.60376 c 2.30832,-0.7237 4.71067,-1.07339 7.16035,-1.14872 z m 10.26189,21.6725 c 2.84576,0.0202 5.8433,0.66242 8.09847,2.54632 0.86383,0.74437 1.90549,1.89447 2.85265,3.31214 0.92081,1.4238 1.78695,3.06754 1.8188,5.05437 0.002,0.81176 -0.16985,1.70362 -0.63179,2.50803 -0.62245,1.09481 -1.64037,1.8355 -2.64206,2.22086 -1.00904,0.39576 -2.02312,0.51447 -3.00581,0.51692 -2.67116,-0.0135 -5.27186,-0.87486 -6.58599,-1.30188 l -0.17231,-0.0574 -5.76274,-3.13984 -0.22974,-0.13401 -0.2106,-0.17231 c -1.73625,-1.63026 -2.80961,-3.34277 -2.83351,-5.30325 -0.008,-1.13218 0.4307,-2.2155 1.07214,-3.00582 0.64268,-0.79951 1.4454,-1.36345 2.31658,-1.79966 1.74667,-0.86139 3.79981,-1.23709 5.91591,-1.24444 z m 0,4.28855 c -1.17262,-0.003 -2.30587,0.18333 -3.19727,0.47863 -0.89814,0.28733 -1.50222,0.70547 -1.68479,0.95726 -0.12743,0.17462 -0.12605,0.21459 -0.13402,0.32548 -0.0227,0.15132 0.14689,0.86184 1.28274,1.97196 l 5.18838,2.83351 c 1.20937,0.4019 3.40373,1.02879 5.03522,1.0147 0.62122,0.004 1.13631,-0.0881 1.4359,-0.2106 0.30817,-0.13294 0.38183,-0.22852 0.47863,-0.3829 0.0417,-0.0772 0.0741,-0.1573 0.0766,-0.36376 0.0319,-0.49747 -0.38306,-1.64803 -1.09128,-2.68035 -0.68188,-1.03722 -1.60346,-2.00796 -2.08684,-2.41231 -1.01946,-0.91345 -3.17981,-1.55307 -5.30325,-1.53162 z"
     id="path3"
     style="fill:#000000;fill-opacity:1;stroke:#000000;stroke-width:0.61265016;stroke-opacity:1"
     sodipodi:nodetypes="ccccssccccccscccczzssscccccccccccccccccccccccccccccccccccccccccccccccccccccccccccccccccccccccccccsscccsscccc"
     inkscape:connector-curvature="0" />
</svg>
