<?xml version="1.0" encoding="UTF-8" standalone="no"?>
<!-- Created with Inkscape (http://www.inkscape.org/) -->

<svg
   xmlns:dc="http://purl.org/dc/elements/1.1/"
   xmlns:cc="http://creativecommons.org/ns#"
   xmlns:rdf="http://www.w3.org/1999/02/22-rdf-syntax-ns#"
   xmlns:svg="http://www.w3.org/2000/svg"
   xmlns="http://www.w3.org/2000/svg"
   xmlns:sodipodi="http://sodipodi.sourceforge.net/DTD/sodipodi-0.dtd"
   xmlns:inkscape="http://www.inkscape.org/namespaces/inkscape"
   width="580"
   height="580"
   id="svg3050"
   version="1.1"
   inkscape:version="0.48.4 r9939"
   sodipodi:docname="New document 1">
  <defs
     id="defs3052" />
  <sodipodi:namedview
     id="base"
     pagecolor="#ffffff"
     bordercolor="#666666"
     borderopacity="1.0"
     inkscape:pageopacity="0.0"
     inkscape:pageshadow="2"
     inkscape:zoom="0.35"
     inkscape:cx="35"
     inkscape:cy="520"
     inkscape:document-units="px"
     inkscape:current-layer="layer1"
     showgrid="false"
     inkscape:window-width="1920"
     inkscape:window-height="1124"
     inkscape:window-x="0"
     inkscape:window-y="24"
     inkscape:window-maximized="1" />
  <metadata
     id="metadata3055">
    <rdf:RDF>
      <cc:Work
         rdf:about="">
        <dc:format>image/svg+xml</dc:format>
        <dc:type
           rdf:resource="http://purl.org/dc/dcmitype/StillImage" />
        <dc:title></dc:title>
      </cc:Work>
    </rdf:RDF>
  </metadata>
  <g
     inkscape:label="Layer 1"
     inkscape:groupmode="layer"
     id="layer1"
     transform="translate(0,-472.36218)">
    <g
       id="g3244"
       transform="translate(29.035718,470.63005)">
      <path
         style="fill:#000000"
         inkscape:connector-curvature="0"
         d="M 276.24018,45.531207 C 253.12163,48.02894 168.89576,86.598579 166.39803,285.02311 c -2.61391,209.1125 86.66551,253.08421 110.0745,252.6776 V 399.62838 c -19.28482,0 -23.11855,-20.96934 -27.59124,-64.3021 -2.84625,-28.69488 -3.71755,-64.12783 0,-99.38652 2.73008,-24.74498 7.26085,-48.90909 27.47506,-48.90909 L 276.24018,45.531207 z"
         id="path5601" />
      <path
         style="fill:#000000"
         inkscape:connector-curvature="0"
         d="m 340.13567,537.93306 c 8.94536,0 15.33491,-7.26085 15.33491,-15.45109 l 0.11618,-0.11617 c 0,0 -0.11618,-107.57677 -0.11618,-107.69294 0,-8.48067 -6.91233,-15.21874 -15.33491,-15.21874 h -39.15051 v 138.42086 c 0,0 39.03433,0.11617 39.03433,0 h 0.11618 z"
         id="path5603" />
      <path
         style="fill:#000000"
         inkscape:connector-curvature="0"
         d="m 340.13567,187.03067 c 8.94536,0 15.33491,-7.26085 15.33491,-15.45109 h 0.11618 c 0,0 -0.11618,-110.713456 -0.11618,-110.829629 0,-8.480674 -6.91233,-15.218744 -15.33491,-15.218744 H 300.98516 V 187.03067 l 39.03433,0.11617 0.11618,-0.11617 z"
         id="path5605" />
    </g>
  </g>
</svg>
