<?xml version="1.0" encoding="UTF-8" standalone="no"?>
<!-- Created with Inkscape (http://www.inkscape.org/) -->

<svg
   xmlns:dc="http://purl.org/dc/elements/1.1/"
   xmlns:cc="http://creativecommons.org/ns#"
   xmlns:rdf="http://www.w3.org/1999/02/22-rdf-syntax-ns#"
   xmlns:svg="http://www.w3.org/2000/svg"
   xmlns="http://www.w3.org/2000/svg"
   xmlns:sodipodi="http://sodipodi.sourceforge.net/DTD/sodipodi-0.dtd"
   xmlns:inkscape="http://www.inkscape.org/namespaces/inkscape"
   width="580"
   height="580"
   id="svg2987"
   version="1.1"
   inkscape:version="0.48.4 r9939"
   sodipodi:docname="New document 1">
  <defs
     id="defs2989" />
  <sodipodi:namedview
     id="base"
     pagecolor="#ffffff"
     bordercolor="#666666"
     borderopacity="1.0"
     inkscape:pageopacity="0.0"
     inkscape:pageshadow="2"
     inkscape:zoom="0.35"
     inkscape:cx="35"
     inkscape:cy="520"
     inkscape:document-units="px"
     inkscape:current-layer="layer1"
     showgrid="false"
     inkscape:window-width="1920"
     inkscape:window-height="1124"
     inkscape:window-x="0"
     inkscape:window-y="24"
     inkscape:window-maximized="1" />
  <metadata
     id="metadata2992">
    <rdf:RDF>
      <cc:Work
         rdf:about="">
        <dc:format>image/svg+xml</dc:format>
        <dc:type
           rdf:resource="http://purl.org/dc/dcmitype/StillImage" />
        <dc:title></dc:title>
      </cc:Work>
    </rdf:RDF>
  </metadata>
  <g
     inkscape:label="Layer 1"
     inkscape:groupmode="layer"
     id="layer1"
     transform="translate(0,-472.36218)">
    <path
       inkscape:connector-curvature="0"
       style="font-size:40px;font-style:normal;font-variant:normal;font-weight:normal;font-stretch:normal;text-align:start;line-height:125%;writing-mode:lr-tb;text-anchor:start;fill:#000000;fill-opacity:1;stroke:none;font-family:NPSPICT3;-inkscape-font-specification:NPSPICT3"
       d="m 130.18036,665.91158 96.45061,96.91985 -96.45061,96.45059 0,-193.37044 z M 430.23942,647.7391 311.43583,766.08768 c -5.90607,5.90595 -13.3618,8.85885 -22.36722,8.85872 -9.3187,1.3e-4 -17.08725,-3.10919 -23.30568,-9.32798 L 147.88361,647.7391 l 282.35581,0 z m 18.64172,211.54292 -96.45061,-96.45059 96.45061,-96.91985 0,193.37044 z m -301.46678,18.17247 96.91984,-96.4506 4.19475,4.19474 c 11.18576,10.87326 24.69897,16.30983 40.53967,16.30972 15.84023,1.1e-4 29.19704,-5.43646 40.07045,-16.30972 l 4.19472,-4.19474 96.90563,96.4506 -282.82506,0 z m -43.32669,26.09271 371.82467,0 0,-282.37004 -371.82467,0 0,282.37004 z"
       id="flowRoot3192" />
    <path
       sodipodi:type="arc"
       style="fill:none;stroke:#000000;stroke-width:25.1376152;stroke-miterlimit:4;stroke-opacity:1;stroke-dasharray:none;stroke-dashoffset:0"
       id="path2207"
       sodipodi:cx="217.14285"
       sodipodi:cy="305.71429"
       sodipodi:rx="288.57144"
       sodipodi:ry="288.57144"
       d="m 505.71429,305.71429 a 288.57144,288.57144 0 1 1 -577.142879,0 288.57144,288.57144 0 1 1 577.142879,0 z"
       transform="matrix(0.9469422,0,0,0.9469422,84.378269,472.86841)" />
  </g>
</svg>
