<?xml version="1.0" encoding="UTF-8" standalone="no"?>
<!-- Created with Inkscape (http://www.inkscape.org/) -->

<svg
   xmlns:dc="http://purl.org/dc/elements/1.1/"
   xmlns:cc="http://creativecommons.org/ns#"
   xmlns:rdf="http://www.w3.org/1999/02/22-rdf-syntax-ns#"
   xmlns:svg="http://www.w3.org/2000/svg"
   xmlns="http://www.w3.org/2000/svg"
   xmlns:sodipodi="http://sodipodi.sourceforge.net/DTD/sodipodi-0.dtd"
   xmlns:inkscape="http://www.inkscape.org/namespaces/inkscape"
   width="580"
   height="580"
   id="svg2997"
   version="1.1"
   inkscape:version="0.48.4 r9939"
   sodipodi:docname="New document 2">
  <defs
     id="defs2999" />
  <sodipodi:namedview
     id="base"
     pagecolor="#ffffff"
     bordercolor="#666666"
     borderopacity="1.0"
     inkscape:pageopacity="0.0"
     inkscape:pageshadow="2"
     inkscape:zoom="0.7"
     inkscape:cx="150.04834"
     inkscape:cy="577.08812"
     inkscape:document-units="px"
     inkscape:current-layer="layer1"
     showgrid="false"
     inkscape:window-width="1920"
     inkscape:window-height="1124"
     inkscape:window-x="0"
     inkscape:window-y="24"
     inkscape:window-maximized="1" />
  <metadata
     id="metadata3002">
    <rdf:RDF>
      <cc:Work
         rdf:about="">
        <dc:format>image/svg+xml</dc:format>
        <dc:type
           rdf:resource="http://purl.org/dc/dcmitype/StillImage" />
        <dc:title></dc:title>
      </cc:Work>
    </rdf:RDF>
  </metadata>
  <g
     inkscape:label="Layer 1"
     inkscape:groupmode="layer"
     id="layer1"
     transform="translate(0,-472.36218)">
    <path
       inkscape:connector-curvature="0"
       style="font-size:40px;font-style:normal;font-variant:normal;font-weight:normal;font-stretch:normal;text-align:start;line-height:125%;writing-mode:lr-tb;text-anchor:start;fill:#000000;fill-opacity:1;stroke:none;font-family:NPSPICT3;-inkscape-font-specification:NPSPICT3"
       d="m 124.58415,662.53428 99.8279,100.31358 -99.8279,99.82789 0,-200.14147 z m 310.56588,-18.8088 -122.9636,122.49265 c -6.11287,6.11275 -13.82967,9.16905 -23.15042,9.16892 -9.645,1.3e-4 -17.68558,-3.21806 -24.12175,-9.65461 l -122.00697,-122.00696 292.24274,0 z m 19.29447,218.95027 -99.8279,-99.82789 99.8279,-100.31358 0,200.14147 z m -312.02289,18.80879 100.31356,-99.8279 4.34164,4.34163 c 11.57745,11.25399 25.56383,16.88093 41.9592,16.88082 16.39489,1.1e-4 30.21939,-5.62683 41.47355,-16.88082 l 4.34161,-4.34163 100.29886,99.8279 -292.72842,0 z m -44.843817,27.00637 384.844417,0 0,-292.25746 -384.844417,0 0,292.25746 z"
       id="flowRoot3192" />
  </g>
</svg>
