<?xml version="1.0" encoding="UTF-8" standalone="no"?>
<!-- Created with Inkscape (http://www.inkscape.org/) -->

<svg
   xmlns:dc="http://purl.org/dc/elements/1.1/"
   xmlns:cc="http://creativecommons.org/ns#"
   xmlns:rdf="http://www.w3.org/1999/02/22-rdf-syntax-ns#"
   xmlns:svg="http://www.w3.org/2000/svg"
   xmlns="http://www.w3.org/2000/svg"
   xmlns:sodipodi="http://sodipodi.sourceforge.net/DTD/sodipodi-0.dtd"
   xmlns:inkscape="http://www.inkscape.org/namespaces/inkscape"
   width="580"
   height="580"
   id="svg2"
   version="1.1"
   inkscape:version="0.48.4 r9939"
   sodipodi:docname="theatre.svg">
  <defs
     id="defs4" />
  <sodipodi:namedview
     id="base"
     pagecolor="#ffffff"
     bordercolor="#666666"
     borderopacity="1.0"
     inkscape:pageopacity="0.0"
     inkscape:pageshadow="2"
     inkscape:zoom="0.35"
     inkscape:cx="-467.85714"
     inkscape:cy="520"
     inkscape:document-units="px"
     inkscape:current-layer="layer1"
     showgrid="false"
     inkscape:window-width="1920"
     inkscape:window-height="1124"
     inkscape:window-x="0"
     inkscape:window-y="24"
     inkscape:window-maximized="1" />
  <metadata
     id="metadata7">
    <rdf:RDF>
      <cc:Work
         rdf:about="">
        <dc:format>image/svg+xml</dc:format>
        <dc:type
           rdf:resource="http://purl.org/dc/dcmitype/StillImage" />
        <dc:title />
      </cc:Work>
    </rdf:RDF>
  </metadata>
  <g
     inkscape:label="Layer 1"
     inkscape:groupmode="layer"
     id="layer1"
     transform="translate(0,-472.36218)">
    <path
       style="font-size:medium;font-style:normal;font-variant:normal;font-weight:normal;font-stretch:normal;text-indent:0;text-align:start;text-decoration:none;line-height:normal;letter-spacing:normal;word-spacing:normal;text-transform:none;direction:ltr;block-progression:tb;writing-mode:lr-tb;text-anchor:start;baseline-shift:baseline;color:#000000;fill:#000000;fill-opacity:1;stroke:none;stroke-width:20;marker:none;visibility:visible;display:inline;overflow:visible;enable-background:accumulate;font-family:Sans;-inkscape-font-specification:Sans"
       d="m 264.875,593.4375 c -14.67749,0.032 -25.8492,9.21521 -33.59375,16.46875 -29.11564,22.35514 -48.4386,37.09187 -96,49.90625 l -0.125,0.0312 L 135,659.875 c -6.42947,1.9421 -20.05131,2.08934 -36.15625,0.78125 C 82.738813,659.34816 63.889576,656.96286 44.9375,655.625 l 0,0.0625 c -4.034319,-0.51921 -8.194685,-0.30418 -12.0625,1.59375 -4.136308,2.02967 -7.138091,5.92246 -8.5,9.59375 -2.723819,7.34257 -1.529924,13.98002 -0.125,20.84375 2.809847,13.72746 8.7757,29.31554 9.9375,35.625 l 0.125,0.625 0.1875,0.59375 C 55.679637,790.89217 80.233385,858.97247 124.375,916 l 0.21875,0.28125 0.25,0.28125 c 25.58445,28.47349 61.56315,54.29336 103.71875,53.8125 l 0.375,0 0.34375,-0.0312 c 35.96249,-2.99864 64.73798,-31.02674 73.25,-64.75 0.0137,-0.0544 0.0489,-0.10179 0.0625,-0.15625 0.0452,-0.14486 0.0803,-0.29243 0.125,-0.4375 0.60642,-1.96806 1.17093,-3.94442 1.6875,-5.9375 0.006,-0.0218 0.0254,-0.0407 0.0312,-0.0625 0.84878,-3.17407 1.65974,-6.36694 2.4375,-9.625 l 1,-4.125 -2.3125,-3.59375 c -4.0551,-6.32258 -7.08133,-13.2666 -8.84375,-20.46875 l -0.0937,-0.3125 -0.0937,-0.3125 c -0.55527,-1.77323 -1.05012,-3.64394 -1.5625,-5.625 l -0.0312,-0.0625 0,-0.0312 C 278.40235,793.03688 279.30498,727.38179 286.59375,663.125 c 2.07445,-9.96822 4.57489,-19.88943 7.3125,-29.84375 l 0.78125,-2.78125 -0.84375,-2.78125 c -1.95555,-6.50124 -3.89195,-12.99112 -5.75,-19.46875 l -0.4375,-1.53125 -0.90625,-1.3125 c -5.31736,-7.80788 -14.05862,-11.98576 -21.875,-11.96875 z m 0.0312,20 c 1.98489,-0.004 2.99088,0.35432 4.59375,2.40625 1.44369,4.99545 2.88872,9.97925 4.375,14.9375 -2.56944,9.48524 -4.98398,19.08045 -7,28.84375 l -0.0937,0.4375 -0.0312,0.4375 c -7.47256,65.6672 -8.66076,133.95849 8.84375,199.4375 0.006,0.0213 0.0257,0.0412 0.0312,0.0625 0.49551,1.91415 1.03354,3.90081 1.65625,5.9375 0.0488,0.19932 0.10604,0.39489 0.15625,0.59375 1.96325,7.77542 5.05362,15.15255 9,22.03125 -0.4499,1.77487 -0.86295,3.54655 -1.34375,5.34375 l -0.0312,0.0312 0,0.0625 c -0.48857,1.88899 -1.04171,3.76231 -1.625,5.625 l -0.0937,0.3125 -0.0625,0.3125 c -6.33263,25.87841 -29.02368,47.79806 -55.40625,50.125 -33.38475,0.17805 -64.72057,-21.19874 -87.90625,-46.90625 -41.474646,-53.70301 -65.42613,-119.29517 -86.40625,-185 l -0.03125,0 c -2.191154,-10.75041 -7.54791,-24.29707 -9.6875,-34.75 -0.785044,-3.83532 -0.800806,-6.51935 -0.75,-8.15625 l 0.03125,0 0.40625,0.0312 c 18.210264,1.2855 36.906459,3.63699 53.6875,5 16.65733,1.35296 31.1586,2.0864 43.28125,-1.5 l 0,0.0312 c 0.10098,-0.0272 0.18049,-0.0665 0.28125,-0.0937 50.03248,-13.52468 73.65395,-30.98433 102.9375,-53.46875 l 0.375,-0.28125 0.375,-0.375 c 5.94927,-5.61081 16.08852,-11.45926 20.4375,-11.46875 z"
       id="path3327"
       inkscape:connector-curvature="0" />
    <path
       style="fill:#0c0000;fill-opacity:1;fill-rule:evenodd;stroke:#000000;stroke-width:1;stroke-linecap:butt;stroke-linejoin:miter;stroke-miterlimit:4;stroke-opacity:1;stroke-dasharray:none"
       d="m 307.65625,574.45593 c -7.75845,1.99335 -6.65216,12.10518 -9.21875,18 -11.44586,36.58947 -22.94424,73.82114 -23.40625,112.5 -3.52027,58.1076 -1.26601,118.13291 18.96875,173.09375 11.94252,24.79259 40.55421,42.6954 68.3125,35.6875 39.13884,-8.07086 70.3371,-37.51733 90.65625,-70.84375 38.09398,-59.52032 59.59666,-127.4029 79.09375,-194.8125 0.37298,-3.58477 1.83659,-9.10048 -0.34375,-11.6875 -18.78901,1.3028 -37.70899,3.78469 -56.59375,5.4375 -20.57984,1.95747 -41.6362,0.0333 -60.90625,-7.5 -34.38701,-11.39078 -64.68087,-31.89944 -92.25,-55.03125 -4.2144,-2.81934 -9.15075,-5.0331 -14.3125,-4.84375 z m 61.5,91.3125 c 16.30541,-0.52278 23.75451,22.783 12.65625,33.4375 -14.94918,16.1141 -38.41477,26.93637 -60.5,21.21875 -13.56338,-4.8754 -21.2342,-24.42699 -10.90625,-35.875 16.26698,-14.12881 39.62952,-11.73933 58.75,-18.78125 z m 65.96875,14.5 c 17.11702,-0.50918 29.59003,15.67127 31.8125,31.34375 4.47036,10.78839 12.37873,22.91644 6.78125,34.8125 -4.10797,8.9602 -15.75028,10.60979 -24.15625,7.3125 -20.10907,-4.6716 -33.51086,-24.57293 -33.90625,-44.78125 -1.82808,-11.59203 3.6182,-26.45785 16.5,-28.375 0.97733,-0.19021 1.96884,-0.29289 2.96875,-0.3125 z m -66.40625,105.5625 c 21.12539,0.34468 40.43592,13.22463 52.8125,29.65625 7.86509,13.49363 4.11776,35.13799 -11.84375,40.65625 -10.96264,2.41607 -18.21597,-8.08662 -26.9375,-12.59375 -13.96503,-8.9439 -31.80484,-9.06012 -47.0625,-3.71875 -7.50701,2.35216 -17.68062,0.64343 -20.53125,-7.625 -4.87856,-11.50286 2.07189,-24.81645 12.125,-30.9375 11.84978,-9.1388 26.31589,-15.38895 41.4375,-15.4375 z"
       id="path3773"
       inkscape:connector-curvature="0" />
    <path
       style="fill:#000000;fill-opacity:1"
       d="m 185.92689,891.73518 c -15.58748,-2.16514 -30.47705,-11.40864 -37.97298,-25.45175 8.30075,-9.22258 20.15463,0.12007 29.84602,1.0014 22.60382,2.85779 43.72857,-12.00492 54.73953,-30.87822 7.13799,-6.84119 8.06807,-25.49854 20.48231,-22.7628 8.95332,4.95513 7.26619,16.35659 5.07908,24.63977 -1.41566,11.04444 -6.78311,20.97417 -13.878,29.39427 -5.58926,7.48599 -11.13937,16.05207 -20.80631,18.5313 -12.36214,2.29995 -24.66344,8.14265 -37.48965,5.52603 z M 130.69926,770.89219 c -11.9155,-7.03343 -26.27813,-11.3583 -34.724617,-23.03371 -1.88389,-13.28322 14.873247,-21.94474 26.019797,-16.75696 13.12632,4.10687 25.53931,11.62351 33.84618,22.75681 5.5137,10.01742 -4.05662,25.83532 -15.96439,20.67562 -3.15785,-0.95437 -6.10053,-2.47227 -9.17697,-3.64176 z m 75.99729,-24.59207 c -8.33385,-10.94476 -8.41198,-29.99624 4.5392,-37.50551 8.50605,-5.61925 20.71278,-9.48138 29.75367,-2.84912 4.74569,9.77973 -3.61235,18.74314 -7.38371,27.20438 -2.27866,8.5463 -7.88213,18.14332 -17.64743,18.99456 -3.93183,0.0974 -7.42284,-2.51404 -9.26173,-5.84431 z"
       id="path3360"
       inkscape:connector-curvature="0" />
  </g>
</svg>
