<?xml version="1.0" encoding="UTF-8" standalone="no"?>
<!-- Created with Inkscape (http://www.inkscape.org/) -->

<svg
   xmlns:dc="http://purl.org/dc/elements/1.1/"
   xmlns:cc="http://creativecommons.org/ns#"
   xmlns:rdf="http://www.w3.org/1999/02/22-rdf-syntax-ns#"
   xmlns:svg="http://www.w3.org/2000/svg"
   xmlns="http://www.w3.org/2000/svg"
   xmlns:sodipodi="http://sodipodi.sourceforge.net/DTD/sodipodi-0.dtd"
   xmlns:inkscape="http://www.inkscape.org/namespaces/inkscape"
   width="580"
   height="580"
   id="svg2994"
   version="1.1"
   inkscape:version="0.48.4 r9939"
   sodipodi:docname="New document 1">
  <defs
     id="defs2996" />
  <sodipodi:namedview
     id="base"
     pagecolor="#ffffff"
     bordercolor="#666666"
     borderopacity="1.0"
     inkscape:pageopacity="0.0"
     inkscape:pageshadow="2"
     inkscape:zoom="0.35"
     inkscape:cx="35"
     inkscape:cy="520"
     inkscape:document-units="px"
     inkscape:current-layer="layer1"
     showgrid="false"
     inkscape:window-width="1920"
     inkscape:window-height="1124"
     inkscape:window-x="0"
     inkscape:window-y="24"
     inkscape:window-maximized="1" />
  <metadata
     id="metadata2999">
    <rdf:RDF>
      <cc:Work
         rdf:about="">
        <dc:format>image/svg+xml</dc:format>
        <dc:type
           rdf:resource="http://purl.org/dc/dcmitype/StillImage" />
        <dc:title></dc:title>
      </cc:Work>
    </rdf:RDF>
  </metadata>
  <g
     inkscape:label="Layer 1"
     inkscape:groupmode="layer"
     id="layer1"
     transform="translate(0,-472.36215)">
    <path
       inkscape:connector-curvature="0"
       style="font-size:40px;font-style:normal;font-variant:normal;font-weight:normal;font-stretch:normal;text-align:start;line-height:125%;writing-mode:lr-tb;text-anchor:start;fill:#000000;fill-opacity:1;stroke:none;font-family:NPSPICT3;-inkscape-font-specification:NPSPICT3"
       d="m 283.5778,988.00541 35.81182,0 0,-451.28652 -35.81182,0 0,451.28652 z m -107.68137,-368.85958 -72.28336,0 c -11.270783,3.6e-4 -21.40748,4.05503 -30.41015,12.16406 -6.762482,6.29541 -11.263867,13.2777 -13.504173,20.94692 L 28.608246,755.61007 c -0.893454,2.25434 -1.340164,4.28169 -1.340113,6.08202 -5.1e-5,10.3637 5.174819,15.54545 15.524629,15.54525 7.215897,2e-4 11.950948,-4.05449 14.205154,-12.16406 l 28.369048,-94.59099 15.524646,0 -46.615147,168.21446 45.275033,0 0,131.06257 c -1.15e-4,11.71048 5.628334,17.56571 16.885364,17.56573 11.25675,-2e-5 16.88521,-5.85525 16.88536,-17.56573 l 0,-131.72231 16.90597,0 0,132.40267 c -1.6e-4,11.25691 5.62828,16.88535 16.88537,16.88537 11.2567,-2e-5 16.88516,-5.62846 16.88535,-16.88537 l 0,-131.74293 45.25443,0 -47.2749,-168.21446 16.20501,0 28.36906,94.59099 c 2.25388,8.10957 6.98206,12.16426 14.18454,12.16406 10.36322,2e-4 15.54497,-5.18155 15.54524,-15.54525 -2.7e-4,-2.25391 -0.44698,-4.28126 -1.3401,-6.08202 L 223.85168,652.25681 c -2.25438,-7.21565 -7.42926,-14.19795 -15.52464,-20.94692 -9.91014,-8.10903 -20.72034,-12.1637 -32.43061,-12.16406 l 0,0 z m -34.45109,-7.44275 c 10.34959,3.5e-4 19.12899,-3.60075 26.33827,-10.80334 7.20891,-7.20183 10.81344,-15.75791 10.81364,-25.66822 -2e-4,-10.3631 -3.60473,-19.14596 -10.81364,-26.3486 -7.20928,-7.20178 -15.98868,-10.80288 -26.33827,-10.80331 -9.91007,4.3e-4 -18.46958,3.60153 -25.67854,10.80331 -7.20922,7.20264 -10.81376,15.9855 -10.81365,26.3486 -1.1e-4,9.91031 3.60443,18.46639 10.81365,25.66822 7.20896,7.20259 15.76847,10.80369 25.67854,10.80334 l 0,0 z m 316.01517,-0.65976 c 9.90939,3.7e-4 18.4689,-3.60418 25.67853,-10.81363 7.20854,-7.20871 10.81308,-15.76822 10.81364,-25.67853 -5.6e-4,-10.34936 -3.6051,-19.01538 -10.81364,-25.9981 -7.20963,-6.98187 -15.76914,-10.47302 -25.67853,-10.47345 -9.91044,4.3e-4 -18.46651,3.49158 -25.66823,10.47345 -7.20271,6.98272 -10.80381,15.64874 -10.80333,25.9981 -4.8e-4,9.91031 3.60062,18.46982 10.80333,25.67853 7.20172,7.20945 15.75779,10.814 25.66823,10.81363 l 0,0 z m 47.97586,7.42216 -96.61147,0 c -13.05792,3.3e-4 -24.20486,4.61856 -33.44086,13.85464 -9.23686,9.23677 -13.85507,20.61049 -13.85465,34.12122 l 0,112.13611 c -4.2e-4,10.81726 4.95453,16.22579 14.86489,16.22561 9.4559,1.8e-4 14.18408,-5.40835 14.18454,-16.22561 l 0,-109.43528 17.56572,0 0,297.25657 c -4.8e-4,13.51103 6.75504,20.26655 20.26655,20.26657 13.51053,-2e-5 20.26604,-6.75554 20.26655,-20.26657 l 0,-172.27604 17.56573,0 0,172.27604 c -5.3e-4,13.51103 6.75498,20.26655 20.26655,20.26657 13.96406,-2e-5 20.94636,-6.75554 20.94692,-20.26657 l 0,-297.25657 16.88537,0 0,109.43528 c -5.9e-4,11.25709 4.72758,16.88553 14.18453,16.88537 9.46948,1.6e-4 14.20452,-5.62828 14.20513,-16.88537 l 0,-111.47637 c -6.1e-4,-13.05715 -4.39203,-24.42744 -13.17428,-34.1109 -8.78346,-9.68279 -20.15718,-14.52437 -34.12122,-14.5247 l 0,0 z"
       id="flowRoot3192"
       sodipodi:nodetypes="ccccccccccssccccccsccccsccccccssccccccssssssscccsccssscccccsccsccccsccccsccccsccccc" />
  </g>
</svg>
