<?xml version="1.0" encoding="UTF-8" standalone="no"?>
<!-- Created with Inkscape (http://www.inkscape.org/) -->

<svg
   xmlns:dc="http://purl.org/dc/elements/1.1/"
   xmlns:cc="http://creativecommons.org/ns#"
   xmlns:rdf="http://www.w3.org/1999/02/22-rdf-syntax-ns#"
   xmlns:svg="http://www.w3.org/2000/svg"
   xmlns="http://www.w3.org/2000/svg"
   xmlns:sodipodi="http://sodipodi.sourceforge.net/DTD/sodipodi-0.dtd"
   xmlns:inkscape="http://www.inkscape.org/namespaces/inkscape"
   width="580"
   height="580"
   id="svg3044"
   version="1.1"
   inkscape:version="0.48.4 r9939"
   sodipodi:docname="New document 2">
  <defs
     id="defs3046" />
  <sodipodi:namedview
     id="base"
     pagecolor="#ffffff"
     bordercolor="#666666"
     borderopacity="1.0"
     inkscape:pageopacity="0.0"
     inkscape:pageshadow="2"
     inkscape:zoom="0.35"
     inkscape:cx="35"
     inkscape:cy="520"
     inkscape:document-units="px"
     inkscape:current-layer="layer1"
     showgrid="false"
     inkscape:window-width="1920"
     inkscape:window-height="1124"
     inkscape:window-x="0"
     inkscape:window-y="24"
     inkscape:window-maximized="1" />
  <metadata
     id="metadata3049">
    <rdf:RDF>
      <cc:Work
         rdf:about="">
        <dc:format>image/svg+xml</dc:format>
        <dc:type
           rdf:resource="http://purl.org/dc/dcmitype/StillImage" />
        <dc:title></dc:title>
      </cc:Work>
    </rdf:RDF>
  </metadata>
  <g
     inkscape:label="Layer 1"
     inkscape:groupmode="layer"
     id="layer1"
     transform="translate(0,-472.36218)">
    <g
       transform="translate(-2.027584,446.38385)"
       id="g3013">
      <path
         inkscape:connector-curvature="0"
         id="path2662"
         d="M 272.88678,135.49087 24.554768,260.20708 334.04076,264.35727 559.5004,146.80474 272.88678,135.49087 z"
         style="fill:#000000;fill-rule:evenodd;stroke:#000000;stroke-width:10;stroke-linecap:round;stroke-linejoin:round;stroke-miterlimit:4;stroke-opacity:1;stroke-dasharray:none" />
      <path
         inkscape:connector-curvature="0"
         sodipodi:nodetypes="cccccscsc"
         id="path2664"
         d="m 127.2667,365.3754 26.83314,-79.28188 186.99348,5.33244 124.50346,-67.7787 49.80945,57.83619 c 0,0 -62.88373,6.9314 -90.28533,23.95428 -27.4016,17.02287 -62.94484,58.0061 -62.94484,58.0061 0,0 -77.38378,-26.80583 -113.16657,-27.40769 -68.31875,-1.14911 -117.50082,28.4224 -121.74279,29.33926 z"
         style="fill:#000000;fill-rule:evenodd;stroke:#000000;stroke-width:10;stroke-linecap:round;stroke-linejoin:round;stroke-miterlimit:4;stroke-opacity:1;stroke-dasharray:none" />
      <path
         inkscape:connector-curvature="0"
         id="path2666"
         d="m 134.25,280.09375 -30.03125,0.4375 c -4.1904,6.98455 -7.208762,15.75451 -10.4375,26.1875 -4.652567,15.0338 -8.589858,33.04796 -10.90625,51 -8.728732,67.64766 -8.75,98.9375 -8.75,98.9375 l 20,0 c 0,0 -0.03718,-29.4853 8.59375,-96.375 2.1652,-16.7803 5.90533,-33.92028 10.15625,-47.65625 4.25092,-13.73597 10.17753,-24.52167 11.6875,-26 3.53733,-3.46321 6.61602,-5.20164 8.625,-6.09375 0.44788,-0.19889 0.78068,-0.32356 1.0625,-0.4375 z"
         style="fill:#000000;fill-opacity:1;fill-rule:evenodd;stroke:none" />
      <path
         inkscape:connector-curvature="0"
         sodipodi:nodetypes="csssc"
         id="path3462"
         d="m 106.46373,433.24868 c 0,13.10677 -14.63738,47.74416 -27.744157,47.74416 -13.106776,0 -19.744159,-34.63739 -19.744159,-47.74416 0,-13.10678 10.637383,-23.74416 23.744159,-23.74416 13.106777,0 23.744157,10.63738 23.744157,23.74416 z"
         style="fill:#000000;fill-opacity:1;stroke:#000000;stroke-width:15.4746418;stroke-linecap:butt;stroke-linejoin:round;stroke-miterlimit:4;stroke-opacity:1;stroke-dashoffset:0" />
      <path
         inkscape:connector-curvature="0"
         sodipodi:nodetypes="ccc"
         style="fill:none;stroke:#000000;stroke-width:10;stroke-linecap:round;stroke-linejoin:round;stroke-miterlimit:4;stroke-opacity:1;stroke-dasharray:none"
         d="M 81.949709,438.15162 69.214311,492.79019 81.949709,438.15162 z"
         id="path3466" />
      <path
         inkscape:connector-curvature="0"
         sodipodi:nodetypes="ccc"
         id="path3468"
         d="M 106.41283,437.87281 88.618917,496.4658 106.41283,437.87281 z"
         style="fill:none;stroke:#000000;stroke-width:10;stroke-linecap:round;stroke-linejoin:round;stroke-miterlimit:4;stroke-opacity:1;stroke-dasharray:none" />
      <path
         inkscape:connector-curvature="0"
         style="fill:none;stroke:#000000;stroke-width:10;stroke-linecap:round;stroke-linejoin:round;stroke-miterlimit:4;stroke-opacity:1;stroke-dasharray:none"
         d="m 56.079496,432.50244 -4.285981,53.22262 4.285981,-53.22262 z"
         id="path3471"
         sodipodi:nodetypes="ccc" />
      <path
         inkscape:connector-curvature="0"
         style="fill:none;stroke:#000000;stroke-width:10;stroke-linecap:round;stroke-linejoin:round;stroke-miterlimit:4;stroke-opacity:1;stroke-dasharray:none"
         d="m 65.682673,436.61091 -4.285981,53.22262 4.285981,-53.22262 z"
         id="path3482"
         sodipodi:nodetypes="ccc" />
      <path
         inkscape:connector-curvature="0"
         id="path3484"
         d="M 91.949709,440.15162 79.214311,494.79019 91.949709,440.15162 z"
         style="fill:none;stroke:#000000;stroke-width:10;stroke-linecap:round;stroke-linejoin:round;stroke-miterlimit:4;stroke-opacity:1;stroke-dasharray:none"
         sodipodi:nodetypes="ccc" />
    </g>
  </g>
</svg>
