<?xml version="1.0" encoding="UTF-8" standalone="no"?>
<!-- Created with Inkscape (http://www.inkscape.org/) -->

<svg
   xmlns:dc="http://purl.org/dc/elements/1.1/"
   xmlns:cc="http://creativecommons.org/ns#"
   xmlns:rdf="http://www.w3.org/1999/02/22-rdf-syntax-ns#"
   xmlns:svg="http://www.w3.org/2000/svg"
   xmlns="http://www.w3.org/2000/svg"
   xmlns:sodipodi="http://sodipodi.sourceforge.net/DTD/sodipodi-0.dtd"
   xmlns:inkscape="http://www.inkscape.org/namespaces/inkscape"
   width="580"
   height="580"
   id="svg3133"
   version="1.1"
   inkscape:version="0.48.4 r9939"
   sodipodi:docname="veterinary.svg">
  <defs
     id="defs3135" />
  <sodipodi:namedview
     id="base"
     pagecolor="#ffffff"
     bordercolor="#666666"
     borderopacity="1.0"
     inkscape:pageopacity="0.0"
     inkscape:pageshadow="2"
     inkscape:zoom="0.35"
     inkscape:cx="-305"
     inkscape:cy="520"
     inkscape:document-units="px"
     inkscape:current-layer="layer1"
     showgrid="false"
     inkscape:window-width="1920"
     inkscape:window-height="1124"
     inkscape:window-x="0"
     inkscape:window-y="24"
     inkscape:window-maximized="1" />
  <metadata
     id="metadata3138">
    <rdf:RDF>
      <cc:Work
         rdf:about="">
        <dc:format>image/svg+xml</dc:format>
        <dc:type
           rdf:resource="http://purl.org/dc/dcmitype/StillImage" />
        <dc:title />
      </cc:Work>
    </rdf:RDF>
  </metadata>
  <g
     inkscape:label="Layer 1"
     inkscape:groupmode="layer"
     id="layer1"
     transform="translate(0,-472.36218)">
    <g
       transform="translate(6.3863696,477.41777)"
       id="g3106">
      <g
         style="fill:#000000;fill-opacity:1;stroke:none"
         transform="matrix(0.5599261,0.3324882,-0.3324882,0.5599261,79.453544,-260.82537)"
         id="layer1-8">
        <path
           inkscape:connector-curvature="0"
           sodipodi:nodetypes="cccccccccccccc"
           d="m 922.96817,588.96089 c 24.0243,2.80534 52.37886,8.1762 65.0633,31.40835 9.26227,13.69502 17.32513,28.38401 28.87643,40.36617 20.4742,10.36026 40.8732,22.80183 55.5624,40.70359 18.4349,27.56507 12.8528,67.04874 -8.5754,91.25527 -23.9937,21.96745 -58.5285,32.94178 -90.50944,24.81452 -20.44108,-4.08663 -40.82293,-16.11271 -62.09074,-9.39446 -19.67342,5.52125 -39.19757,14.22038 -60.14891,11.8866 -19.91653,-0.67497 -37.78663,-10.41533 -54.54059,-20.2091 -19.53406,-12.53883 -31.7396,-35.21136 -30.41665,-58.50793 0.067,-34.97267 26.3604,-63.96641 55.97055,-79.31568 12.63694,-6.1417 25.90432,-12.81303 31.91156,-26.45203 8.58936,-15.73398 16.12353,-35.49722 35.20799,-40.86311 10.77032,-3.919 22.26986,-5.48983 33.6895,-5.69219 z"
           style="fill:#000000;fill-opacity:1;fill-rule:evenodd;stroke:none"
           id="path2078" />
        <path
           inkscape:connector-curvature="0"
           sodipodi:nodetypes="ccccccccc"
           d="m 706.83161,545.9715 c 5.12977,-18.01457 19.67126,-34.6786 38.97729,-37.11684 13.80277,-1.78026 28.08593,1.72456 40.23749,8.24205 22.16066,14.75851 35.05953,39.74123 42.35302,64.6795 3.67599,11.92517 6.17666,24.67526 3.14767,37.03976 -2.7993,14.60207 -13.39057,26.97443 -27.02046,32.66676 -17.70364,10.64278 -41.17953,9.20349 -58.05972,-2.43004 -10.04038,-6.64991 -18.93779,-15.32943 -24.33797,-26.20917 -12.78899,-23.06312 -21.41515,-50.46696 -15.29732,-76.87202 z"
           style="fill:#000000;fill-opacity:1;fill-rule:evenodd;stroke:none"
           id="path2040" />
        <path
           inkscape:connector-curvature="0"
           sodipodi:nodetypes="cccccccc"
           d="m 421.73586,81.462526 c 0,0 29.46428,0.178571 45.71428,37.857144 0,0 11.21308,24.43717 7.32143,61.96429 0,0 -0.60865,37.77966 -23.08454,53.18448 0,0 -30.55712,27.7792 -65.65992,-9.59645 0,0 -24.4962,-26.26396 -29.29442,-63.38707 0,0 -5.3033,-38.3858 18.43528,-61.36677 0,0 20.13932,-18.834196 46.56789,-18.655624 z"
           transform="translate(452.857,333.791)"
           style="fill:#000000;fill-opacity:1;fill-rule:evenodd;stroke:none"
           id="path2071" />
        <path
           inkscape:connector-curvature="0"
           sodipodi:nodetypes="ccccccc"
           d="m 576.52455,89.717037 c 0,0 36.25,10.714283 32.32143,52.142853 0,0 2.05835,33.27693 -17.63963,63.58151 0,0 -19.95051,37.37564 -46.46702,41.41625 0,0 -29.29442,9.09137 -50.50762,-35.86042 0,0 -15.15229,-51.0127 8.33376,-85.35789 0,0 27.42112,-50.946446 73.95908,-35.922303 z"
           transform="translate(452.857,333.791)"
           style="fill:#000000;fill-opacity:1;fill-rule:evenodd;stroke:none"
           id="path2073" />
        <path
           inkscape:connector-curvature="0"
           sodipodi:nodetypes="cccccccccc"
           d="m 1117.8,529.42866 c 17.0128,5.19957 29.0252,21.65542 30.538,39.14833 1.6415,15.71874 -2.0788,31.51923 -7.3703,46.23188 -8.6097,21.5116 -24.1266,40.31698 -43.7581,52.63552 -14.8357,8.09747 -33.3338,4.66111 -46.9133,-4.41714 -5.555,-2.66124 -8.9406,-7.70303 -11.333,-13.19597 -9.0423,-17.99186 -10.3113,-39.89227 -2.093,-58.41912 6.9469,-17.44643 15.4953,-35.25253 30.1471,-47.54014 11.1088,-10.0964 25.6272,-18.34264 41.1562,-16.72517 3.2906,0.33413 6.5337,1.11092 9.6264,2.28181 z"
           style="fill:#000000;fill-opacity:1;fill-rule:evenodd;stroke:none"
           id="path2075" />
      </g>
      <path
         inkscape:connector-curvature="0"
         sodipodi:nodetypes="cssssccsssssssccssssssssccsssssssssssccsssssssssccssssssssccsssccsssssssccssssssccssssssssssssccsssssssssssc"
         id="path2452"
         d="M 188.26391,419.97783 C 173.35178,395.84948 200.09,364.5935 218.3666,384.78892 c 5.68116,6.27761 3.03722,6.97009 -9.62297,2.52041 -11.27507,-3.96288 -11.27507,-3.96288 -12.56667,11.59874 -0.7104,8.55891 -1.4665,16.85926 -1.68024,18.44523 -0.46456,3.44733 -4.63815,5.20473 -6.23281,2.62453 z M 159.41013,390.8976 c -0.64227,-1.03922 7.58878,-7.52257 18.29123,-14.4074 10.70242,-6.88485 19.45898,-13.90601 19.45898,-15.60257 0,-2.37048 -1.0904,-2.06032 -4.70949,1.33965 -5.92937,5.57036 -7.96015,5.60264 -7.1322,0.11333 0.49071,-3.25343 3.39574,-5.16133 11.84169,-7.77719 6.1553,-1.9064 13.25172,-4.57701 15.7698,-5.93468 6.65066,-3.5858 7.30146,9.46389 0.83307,16.70507 -6.08697,6.81421 -52.46101,28.62521 -54.35308,25.56379 z m 10.53291,-24.3168 c -10.55703,-12.54631 -4.86395,-23.4587 17.36486,-33.28465 12.58857,-5.56463 15.58289,-8.52872 12.11692,-11.99469 -1.66277,-1.66278 -2.26448,-1.62955 -2.26448,0.12502 0,1.31426 -2.747,3.81006 -6.10445,5.54626 -6.13739,3.17377 -9.95729,-2.46567 -4.11561,-6.07602 19.36099,-11.96575 32.60301,-11.55417 32.60301,1.01332 0,17.54191 -7.63281,25.89325 -26.98342,29.52344 -9.04056,1.69601 -11.14143,3.97417 -12.0205,13.03476 -0.89303,9.20495 -4.09185,9.84268 -10.59633,2.11256 z m -8.07656,-30.10292 c -11.39276,-12.58885 1.15738,-32.79781 25.33923,-40.80271 21.42141,-7.09111 27.33564,-17.53574 13.97761,-24.68476 -3.72649,-1.99437 -4.02298,-1.4876 -4.02298,6.87616 0,8.203 -0.55858,9.22392 -6.10445,11.15722 -6.10443,2.12802 -6.10443,2.12802 -6.10443,-7.75082 0,-9.87884 0,-9.87884 11.70017,-13.45321 6.43511,-1.96592 14.39541,-4.91328 17.68962,-6.54968 5.69127,-2.82717 6.22231,-2.70449 10.66823,2.46418 14.59957,16.973 5.5078,36.61344 -21.23818,45.87964 -22.26617,7.71418 -25.26524,9.66336 -24.53952,15.94907 0.49424,4.28059 -0.83399,6.48107 -6.07086,10.05773 -8.04034,5.49135 -7.16098,5.4246 -11.29444,0.85718 z m -8.35108,-41.74552 c -14.26257,-18.6992 -1.64746,-37.11043 34.95099,-51.00956 9.49414,-3.6056 16.57883,-7.8103 19.98936,-11.86348 4.99244,-5.93319 5.28441,-8.20595 2.05573,-16.00151 -1.09469,-2.64308 0.47928,-3.52112 8.21182,-4.58099 5.26133,-0.72114 10.90212,-2.41998 12.53507,-3.77521 3.93001,-3.26164 7.84043,1.92998 9.68722,12.8611 2.85137,16.87704 -10.09719,30.00476 -40.03887,40.59291 -26.15598,9.24941 -33.85503,18.66139 -22.03654,26.93938 3.89856,2.73066 3.59994,3.12239 -6.29224,8.25463 -13.0153,6.75259 -12.82001,6.7671 -19.06254,-1.41727 z m -6.47642,-51.33184 c -20.52819,-21.76623 5.38894,-57.72127 41.72924,-57.89136 26.32735,-0.12321 56.21023,-11.01935 56.21023,-20.49583 0,-6.47753 -5.45571,-7.26635 -12.78398,-1.84833 -17.43028,12.88675 -37.10042,-3.25447 -20.74101,-17.01999 16.90229,-14.22233 54.89053,-1.85134 54.89053,17.87526 0,22.26635 -22.08192,37.38813 -63.99134,43.82148 -35.55842,5.45844 -43.8838,13.5294 -27.86216,27.01072 5.81752,4.89513 5.81752,4.89513 -4.61059,10.35496 -13.3729,7.00161 -14.62699,6.90239 -22.84092,-1.80691 z m 37.91248,-17.15104 c 0,-12.20888 0,-12.20888 6.10443,-12.20888 5.9728,0 6.10445,0.22049 6.10445,10.22442 0,9.72296 -3.56663,14.19334 -11.32394,14.19334 -0.48673,0 -0.88494,-5.494 -0.88494,-12.20888 z M 132.0226,191.86847 c -29.24561,-19.64158 -21.92858,-47.397 13.68099,-51.89574 18.55678,-2.34435 36.8098,11.61801 29.80441,22.79845 -3.3764,5.38869 -18.4085,5.70382 -25.40303,0.53256 -8.47908,-6.26886 -13.98904,-5.59148 -13.98904,1.71981 0,6.61588 10.04903,12.85479 25.06947,15.56434 7.77355,1.40224 7.77355,1.40224 -2.39723,7.21103 -5.59394,3.19482 -10.74849,6.74351 -11.45457,7.88597 -2.09932,3.39678 -6.02943,2.41716 -15.311,-3.81642 z m 52.23894,-50.57245 c -0.73338,-20.98401 -1.33597,-46.112916 -1.33914,-55.841976 -0.005,-15.236696 -0.55672,-18.075155 -3.97969,-20.472699 -18.23517,-12.772416 0.2152,-41.383401 20.06689,-31.117681 11.50044,5.9471 12.92977,19.746169 3.23836,31.263763 -5.08762,6.046306 -5.08762,6.046306 -5.08762,60.183823 0,54.13752 0,54.13752 -5.78271,54.13752 -5.78272,0 -5.78272,0 -7.11609,-38.15275 z m -56.25212,-16.92518 c -3.09516,-2.04094 -6.75783,-5.25615 -8.13926,-7.14493 -2.35589,-3.22104 -3.05319,-3.22142 -11.23813,-0.006 -10.449259,4.105 -21.127592,0.53579 -25.211221,-8.42677 -1.757921,-3.85823 -3.871512,-5.10251 -8.667332,-5.10251 -7.883246,0 -15.387228,-5.036816 -15.387228,-10.328206 0,-3.1952 -0.972607,-3.74891 -4.867891,-2.77126 -7.647441,1.91938 -23.619492,-8.58353 -23.619492,-15.531733 0,-0.700198 17.626567,-1.823271 39.170146,-2.495715 34.398018,-1.073662 41.125878,-1.855018 55.222898,-6.413401 22.64843,-7.323518 28.80607,-6.990273 34.01657,1.840851 2.28182,3.867413 5.91359,7.591768 8.07061,8.276382 7.90491,2.508924 5.667,48.948302 -2.43691,50.569102 -12.95894,2.59178 -31.07833,1.38137 -36.91276,-2.46585 z m 86.89102,2.01874 c -7.99144,-2.37233 -9.10105,-47.958198 -1.21555,-49.937334 2.75766,-0.692128 5.59278,-3.082193 6.30027,-5.311264 3.67073,-11.565458 12.28567,-12.71867 36.62896,-4.90316 14.34891,4.606766 20.90905,5.363547 55.34273,6.384359 39.06424,1.158069 39.06424,1.158069 36.0835,6.922171 -3.70717,7.168882 -13.90487,12.683782 -20.42691,11.046852 -3.5338,-0.88693 -4.86789,-0.37464 -4.86789,1.86922 0,5.49597 -7.73375,11.230246 -15.14606,11.230246 -5.58195,0 -7.71925,1.20611 -10.51037,5.93105 -5.91675,10.01627 -15.58054,12.69322 -26.07194,7.22214 -5.75822,-3.00282 -6.16115,-2.89082 -12.81983,3.56303 -7.21419,6.99224 -29.51556,10.07382 -43.29691,5.98269 z"
         style="fill:#000000" />
    </g>
  </g>
</svg>
